<?xml version="1.0" standalone="no"?>
<!DOCTYPE svg PUBLIC "-//W3C//DTD SVG 1.1//EN" "http://www.w3.org/Graphics/SVG/1.1/DTD/svg11.dtd" >
<svg xmlns="http://www.w3.org/2000/svg" xmlns:xlink="http://www.w3.org/1999/xlink" version="1.1">
<metadata></metadata>
<defs>
<font id="futura_condensedbold" horiz-adv-x="999" >
<font-face units-per-em="2048" ascent="1638" descent="-410" />
<missing-glyph horiz-adv-x="499" />
<glyph horiz-adv-x="0" />
<glyph unicode="&#xd;" horiz-adv-x="0" />
<glyph unicode=" "  horiz-adv-x="499" />
<glyph unicode="&#x09;" horiz-adv-x="499" />
<glyph unicode="&#xa0;" horiz-adv-x="499" />
<glyph unicode="!" horiz-adv-x="499" d="M49 178q0 -96 59.5 -147t143.5 -51q80 0 139 51.5t59 146.5q-4 90 -61 139t-135 49t-138.5 -50t-66.5 -138zM96 467h308v1065h-308v-1065z" />
<glyph unicode="&#x22;" horiz-adv-x="741" d="M16 1532l33 -580h225l33 580h-291zM387 1532l33 -580h225l33 580h-291z" />
<glyph unicode="#" d="M49 500h177l-48 -500h176l50 500h145l-49 -500h178l47 500h178v194h-161l16 176h178v212h-162l50 482h-179l-49 -482h-146l50 482h-178l-48 -482h-178v-212h162l-16 -176h-193v-194zM420 694l16 176h144l-15 -176h-145z" />
<glyph unicode="$" d="M33 1145q0 -172 88.5 -272.5t271.5 -194t242 -133t59 -125.5t-55 -137t-141 -51q-158 0 -306 155l-143 -225q41 -42 90 -72.5t120 -56t177 -49.5v-176h160v176q89 24 159.5 68.5t117 105t70 134.5t23.5 158q-10 192 -99.5 295.5t-205 155t-227.5 106.5t-112 138 q0 67 56 115t136 48q122 0 228 -114l161 176q-73 86 -145 126t-178 52v146h-160v-146q-94 -8 -183 -59t-146.5 -140t-57.5 -204z" />
<glyph unicode="%" horiz-adv-x="1757" d="M64 1106q0 -116 36.5 -218t110 -164t176.5 -62q77 0 138 35t101.5 97t60 138t19.5 160q0 118 -39 223t-115 169t-182 64q-96 0 -165 -62t-105 -163.5t-36 -216.5zM303 1106q0 87 22 152t62 65q35 0 56.5 -69.5t21.5 -161.5q0 -86 -19.5 -145.5t-58.5 -59.5 q-40 0 -62 65.5t-22 153.5zM404 16h208l711 1516h-211zM1016 428q0 -116 37 -218t110 -164t177 -62q102 0 173.5 60t107.5 159t36 211q0 117 -38.5 222t-114 169.5t-181.5 64.5q-96 0 -165.5 -62t-105.5 -163.5t-36 -216.5zM1254 428q0 89 23 153t63 64q36 0 56.5 -69.5 t20.5 -161.5q0 -86 -19.5 -145.5t-57.5 -59.5q-40 0 -63 64.5t-23 154.5z" />
<glyph unicode="&#x26;" horiz-adv-x="1210" d="M30 428q0 -26 3 -41q15 -174 136 -289.5t285 -115.5q159 0 304 114l66 -96h321l-179 258q102 61 179 162l-162 225q-37 -52 -159 -178l-212 323q86 55 145.5 122.5t88 140t28.5 141.5q0 88 -45.5 161.5t-134 117t-210.5 43.5q-68 0 -128 -22.5t-106 -66t-72 -104.5 t-26 -137q0 -156 106 -332q-112 -112 -170 -206t-58 -220zM334 446q0 44 26 94t60 72l192 -305q-60 -51 -112 -51q-56 0 -100 47t-62 117q-4 16 -4 26zM412 1182q0 42 24 67t64 25q46 0 70 -26t24 -68q0 -44 -28 -89.5t-82 -74.5q-72 92 -72 166z" />
<glyph unicode="'" horiz-adv-x="612" d="M33 920h209l307 628h-307z" />
<glyph unicode="(" horiz-adv-x="612" d="M66 649q0 -499 225 -907l274 66q-207 450 -207 868q0 430 207 840l-274 65q-50 -90 -91.5 -196.5t-71.5 -225.5t-46 -249.5t-16 -260.5z" />
<glyph unicode=")" horiz-adv-x="612" d="M16 1499q206 -379 207 -833q0 -434 -190 -875l258 -65q231 452 231 915q0 464 -231 940z" />
<glyph unicode="*" horiz-adv-x="774" d="M33 1065l79 -129l210 146v-258h145v258l195 -130l80 130l-210 112l210 112l-97 130l-178 -130v242h-145v-242l-210 130l-79 -130l225 -112z" />
<glyph unicode="+" d="M33 420h337v-387h242v387h340v242h-340v386h-242v-386h-337v-242z" />
<glyph unicode="," horiz-adv-x="499" d="M-64 -291h210l304 629h-304z" />
<glyph unicode="-" horiz-adv-x="645" d="M49 549h531v289h-531v-289z" />
<glyph unicode="." horiz-adv-x="499" d="M49 192q0 -94 60 -146t143 -52q80 0 139 52t59 146q-4 90 -61 139.5t-135 49.5t-138.5 -50.5t-66.5 -138.5z" />
<glyph unicode="/" horiz-adv-x="1112" d="M64 -338h243l805 1999h-242z" />
<glyph unicode="0" d="M64 790q0 -198 38 -384t136 -312.5t262 -126.5q118 0 202 62.5t136 174.5t75 256t23 314q0 192 -38 375.5t-136 307.5t-262 124q-160 0 -257.5 -108.5t-138 -286.5t-40.5 -396zM354 807q0 180 31 331.5t115 151.5q60 0 91.5 -84t42.5 -197t11 -219v-98q0 -120 -9.5 -216 t-41.5 -165t-94 -69q-61 0 -89.5 65.5t-36.5 156.5t-20 343z" />
<glyph unicode="1" d="M226 1290h144v-1290h308v1564h-452v-274z" />
<glyph unicode="2" d="M49 0h838v274h-371q10 30 76.5 139.5t113 189.5t100.5 193.5t81 219.5q18 62 18 152q0 104 -37 197.5t-127.5 154.5t-240.5 61q-138 0 -230.5 -58.5t-136 -162.5t-43.5 -242q0 -52 6 -102h291q-8 56 -8 106q0 96 28 164q29 68 93 68q54 0 86 -48t32 -132 q0 -152 -102 -336q-40 -80 -117.5 -222t-176 -316t-173.5 -300z" />
<glyph unicode="3" d="M74 344q0 -126 63 -211t161 -125.5t202 -40.5q154 0 252 60.5t145 161.5t55 231q0 68 -22.5 148t-77 144t-144.5 78q194 108 195 371q0 118 -45.5 209t-140.5 142.5t-233 51.5q-122 0 -202 -60t-116.5 -162t-36.5 -230h275q0 194 96 194q74 0 93 -44t19 -117 q0 -89 -38 -142t-162 -53q-26 0 -42 2v-290h66q72 0 107.5 -12t52 -52.5t16.5 -130.5q0 -104 -26 -164.5t-102 -60.5q-66 0 -98 53t-32 125h-274q-6 -44 -6 -76z" />
<glyph unicode="4" d="M64 370h436v-370h307v370h129v242h-129v920h-340l-403 -920v-242zM274 612l258 612v-612h-258z" />
<glyph unicode="5" d="M96 49q70 -40 171 -59t153 -23q160 0 274 78.5t170 207.5t56 279q0 160 -64 270t-170 166t-236 64l50 258h387v258h-596l-129 -758q54 6 102 6q115 0 185.5 -32t100.5 -91t30 -141q0 -87 -29 -153t-79 -100.5t-114 -34.5q-94 0 -196 78z" />
<glyph unicode="6" d="M80 540q0 -136 32 -233q18 -73 70 -152t137.5 -133.5t196.5 -54.5q141 0 233.5 84.5t134.5 217.5t42 282q0 114 -24 213q-22 98 -64 156q-68 98 -182 98q-76 0 -142 -31t-94 -51l288 612h-272l-258 -548q-46 -100 -72 -220q-26 -122 -26 -240zM368 488q0 107 38 185.5 t110 84.5q61 -6 93 -77t32 -171q0 -110 -39 -194q-38 -84 -102 -90q-60 0 -96 78t-36 184z" />
<glyph unicode="7" d="M80 0h324l562 1548h-820v-258h419z" />
<glyph unicode="8" d="M39 438q0 -98 41 -196q50 -126 160 -190q112 -64 246 -64q143 0 261.5 69t155.5 185q35 106 35 200q0 116 -47 199.5t-112 129.5t-117 53q218 102 218 323q0 65 -26 159q-40 118 -142 182t-224 64q-73 0 -142 -24t-121.5 -72t-78.5 -116q-46 -102 -46 -202 q0 -212 222 -314q-66 -14 -132 -66t-108.5 -135t-42.5 -185zM360 463q0 90 37 157.5t103 73.5q58 -6 92 -75t34 -158q0 -54 -14 -103t-42 -80q-28 -32 -70 -36q-66 0 -103 65t-37 156zM393 1145q0 70 25 124t66 54q52 0 80 -49.5t28 -120.5q0 -70 -28 -120t-80 -50 q-44 0 -67.5 48t-23.5 114z" />
<glyph unicode="9" d="M80 1065q0 -142 13 -217q13 -74 69 -186q34 -71 96 -111.5t131 -40.5q105 0 191 86l-289 -596h321l195 450q131 336 131 572q0 40 -2 60q0 66 -24 145.5t-74 152.5t-131 120.5t-191 47.5q-135 0 -233.5 -60t-150.5 -170t-52 -253zM370 1018q0 104 38 180t108 76 q61 -6 94 -75.5t33 -166.5q0 -98 -34 -175t-93 -83q-72 0 -109 71t-37 173z" />
<glyph unicode=":" horiz-adv-x="499" d="M49 178q0 -95 59 -147.5t138 -52.5q50 0 94 22t70 67t26 111q0 84 -60 133q-58 49 -138 49q-74 0 -129 -47t-60 -135zM49 870q5 -97 61 -147.5t132 -50.5q81 0 137.5 55.5t56.5 159.5q-12 77 -65.5 119t-124.5 42q-76 0 -133.5 -47t-63.5 -131z" />
<glyph unicode=";" horiz-adv-x="499" d="M-80 -291h209l307 629h-307zM49 870q5 -101 57 -150.5t126 -49.5q50 0 97.5 23t77 65.5t29.5 95.5q-6 96 -61 146t-129 50q-75 0 -133 -49t-64 -131z" />
<glyph unicode="&#x3c;" d="M33 420l919 -453v225l-678 324l678 338v228l-919 -454v-208z" />
<glyph unicode="=" d="M33 209h919v227h-919v-227zM33 596h919v228h-919v-228z" />
<glyph unicode="&#x3e;" d="M16 870l692 -354l-675 -324v-225l919 453v208l-936 468v-226z" />
<glyph unicode="?" horiz-adv-x="936" d="M49 1112h289q-2 14 -2 43q0 82 29 118.5t63 36.5q10 0 22 -4q94 -35 95 -190q0 -94 -29 -164q-38 -94 -125 -94q-33 0 -69 12v-386h306v210q135 32 188.5 151.5t53.5 299.5q0 112 -59 208.5t-162 153.5t-229 57q-108 0 -192 -49.5t-131.5 -151t-47.5 -251.5zM274 146 q6 -78 66 -123t137 -45q82 0 141.5 48.5t59.5 135.5q0 96 -58 147q-56 51 -136 51q-54 0 -102 -24t-78 -73t-30 -117z" />
<glyph unicode="@" horiz-adv-x="1710" d="M74 784q0 -44 6 -90q48 -343 274 -532q78 -68 169 -108.5t184 -57t182 -16.5q95 0 193 20q191 40 296.5 143t137.5 164h-193q-171 -182 -415 -182q-150 -1 -328 67q-122 51 -200 151t-112 215.5t-34 219.5q0 40 8 92q44 244 188 397q142 153 440 153q203 0 318 -67 q116 -67 152 -112q114 -103 114 -352q0 -24 -1 -41.5t-1 -23.5q-6 -92 -46.5 -169t-92 -120t-84.5 -43q-25 0 -25 26q0 10 6 31l96 629h-194l-16 -113q-13 9 -37 33t-46.5 41t-61.5 33t-97 22q-128 0 -231 -72t-161 -182t-58 -215q0 -122 48 -214t123 -140.5t150 -48.5 q66 0 120 25.5t99.5 61t51.5 35.5q4 0 4 -8q8 -114 110 -114q40 0 87.5 16t88 37t54.5 29q75 34 141.5 115.5t106.5 190.5t40 224q0 136 -64 260q-80 152 -204 234t-232 109t-162 27q-26 2 -79 2q-214 0 -371 -73t-254.5 -191t-142.5 -254t-45 -264zM624 702q0 70 30 139.5 t83 114t117 44.5q178 0 178 -193q0 -59 -21.5 -131t-72 -124t-131.5 -52q-91 5 -137 62q-46 56 -46 140z" />
<glyph unicode="A" horiz-adv-x="1081" d="M0 0h307l63 258h308l47 -258h323l-370 1548h-324zM404 484l96 677l128 -677h-224z" />
<glyph unicode="B" horiz-adv-x="983" d="M96 0h404q97 0 176.5 36t133.5 98t82 139t28 157q0 111 -54 204.5t-158 139.5q176 98 176 312q0 77 -22.5 149.5t-54.5 118.5q-44 66 -100.5 111t-110.5 64q-52 19 -96 19h-404v-1548zM404 242v420q100 0 154 -62q54 -64 54 -150q0 -208 -208 -208zM404 887v387 q108 0 150 -35t42 -157q0 -102 -50 -151t-112 -49q-12 0 -30 5z" />
<glyph unicode="C" horiz-adv-x="919" d="M51 766q1 -74 13 -154q37 -208 139.5 -350.5t236.5 -211t264 -68.5q92 0 166 34v275q-56 -15 -116 -15q-194 0 -290 156t-96 366q0 132 36 234q32 92 88.5 146t123 76t134.5 22t120 -18v258q-87 36 -188 36q-126 0 -246 -58t-210 -171q-76 -98 -125.5 -245.5 t-49.5 -311.5z" />
<glyph unicode="D" horiz-adv-x="1081" d="M96 0h324q153 0 268 54t184.5 142t93.5 191q60 226 60 414q0 225 -90 423q-42 93 -112 166.5t-171.5 115.5t-232.5 42h-324v-1548zM404 258v1016q166 -11 235 -148.5t69 -335.5q0 -146 -21 -258t-89 -189q-66 -77 -194 -85z" />
<glyph unicode="E" horiz-adv-x="807" d="M96 0h629v291h-305v337h258v308h-258v322h305v290h-629v-1548z" />
<glyph unicode="F" horiz-adv-x="807" d="M96 0h308v628h274v292h-274v338h321v290h-629v-1548z" />
<glyph unicode="G" horiz-adv-x="1161" d="M56 788q0 -152 32 -294t101 -259.5t177 -186.5q106 -68 252 -68q48 0 76 4q150 22 236.5 119t116 186t35.5 131q6 28 16 98t10 168q0 84 -12 168h-500v-289h211q-26 -307 -211 -307q-78 6 -121 64t-59 135t-21 160t-8 91q0 81 9.5 224.5t39.5 212.5q29 74 76 111 q46 38 98 38q67 0 115.5 -55t48.5 -143l291 114q-58 144 -122 224t-185 114q-94 24 -168 25q-150 0 -255 -79.5t-164 -192.5t-83 -216t-24 -149q-8 -62 -8 -148z" />
<glyph unicode="H" horiz-adv-x="1128" d="M112 0h308v645h322v-645h290v1548h-307v-612h-305v612h-308v-1548z" />
<glyph unicode="I" horiz-adv-x="516" d="M112 0h292v1548h-292v-1548z" />
<glyph unicode="J" horiz-adv-x="725" d="M16 16q27 -14 91.5 -34.5t140.5 -20.5q66 1 122 23q84 30 139 89t79 132t24 149v1194h-305v-1098q0 -116 -36.5 -168t-94.5 -52q-42 0 -86 26t-74 66v-306z" />
<glyph unicode="K" horiz-adv-x="1048" d="M96 0h308v758l290 -758h322l-322 807l289 741h-321l-258 -710v710h-308v-1548z" />
<glyph unicode="L" horiz-adv-x="758" d="M80 0h662v291h-355v1257h-307v-1548z" />
<glyph unicode="M" horiz-adv-x="1483" d="M16 0h322l66 1082l192 -1082h242l178 1082l80 -1082h324l-179 1548h-403l-130 -952l-143 952h-403z" />
<glyph unicode="N" horiz-adv-x="1177" d="M80 0h307v920l371 -920h274v1548h-290v-952l-355 952h-307v-1548z" />
<glyph unicode="O" horiz-adv-x="1194" d="M47 738q0 -10 1 -30t1 -30q10 -198 65 -336.5t137.5 -220.5t175.5 -118t185 -36q158 18 260.5 105.5t154 207.5t68.5 234t17 211q0 214 -45 373t-122 258t-174.5 145.5t-205.5 46.5q-166 -8 -283 -116t-176 -290t-59 -404zM368 708q0 35 2 50q0 500 210 516 q227 0 227 -512q0 -250 -55.5 -379t-155.5 -141q-75 0 -126.5 77t-76.5 186t-25 203z" />
<glyph unicode="P" d="M96 0h308v628q4 0 14 -1t26 -1q114 0 241 44t202 168q18 32 35.5 111t17.5 167q0 114 -37 210.5t-132 159t-255 62.5h-420v-1548zM404 870v420q108 0 174.5 -53t66.5 -157q0 -210 -241 -210z" />
<glyph unicode="Q" horiz-adv-x="1194" d="M41 784q0 -144 23 -268.5t64.5 -220t97.5 -166.5q63 -82 160 -124t202 -42q83 0 158 26q76 27 124 75l130 -128l145 144l-129 129q120 198 120 518q0 154 -24 305q-29 205 -122.5 320.5t-203.5 155.5t-206 40q-99 0 -208.5 -50t-201.5 -183t-121 -363q-8 -120 -8 -168z M377 809q0 126 18.5 229.5t67 169.5t133.5 66q82 0 129 -79t64.5 -191t17.5 -230q0 -52 -3 -152q-4 -100 -14 -172l-162 162l-144 -145l194 -193q-50 -30 -92 -30q-58 0 -104 48t-70.5 123t-24.5 150q-10 165 -10 244z" />
<glyph unicode="R" horiz-adv-x="1081" d="M96 0h324v725l274 -725h322l-274 708q78 50 125.5 105.5t68.5 107t26 91.5q4 40 4 84q0 134 -62.5 237t-173 159t-246.5 56h-388v-1548zM404 870v420q5 1 16.5 2.5t33.5 1.5q82 0 145 -44t63 -168q0 -212 -258 -212z" />
<glyph unicode="S" horiz-adv-x="903" d="M70 1116q0 -114 46.5 -214t141.5 -177q17 -16 77 -57.5t97.5 -72.5t68.5 -76.5t31 -98.5q-5 -50 -31.5 -86t-68 -54t-90.5 -18q-120 0 -213 92v-305q143 -73 271 -73q127 0 224.5 65t149.5 168q60 119 60 241q0 216 -172 357q-28 22 -96 73.5t-109.5 88.5t-69.5 79 q-29 44 -29 92q0 61 42 105.5t110 44.5q99 0 215 -96v289q-126 71 -260 71q-130 0 -229 -68q-100 -69 -140 -196q-26 -86 -26 -174z" />
<glyph unicode="T" horiz-adv-x="854" d="M16 1241h242v-1241h322v1241h244v307h-808v-307z" />
<glyph unicode="U" horiz-adv-x="1112" d="M96 420q9 -286 145.5 -369.5t323.5 -83.5q170 0 294 77.5t124 342.5v1161h-289v-1128q0 -64 -8 -101t-36 -57t-85 -20q-84 0 -131 44t-47 164v1098h-291v-1128z" />
<glyph unicode="V" horiz-adv-x="1161" d="M16 1548l451 -1548h258l420 1548h-321l-228 -1016l-242 1016h-338z" />
<glyph unicode="W" horiz-adv-x="1628" d="M0 1548l322 -1548h274l228 1096l192 -1096h274l322 1548h-338l-146 -1048l-192 1048h-258l-194 -1048l-146 1048h-338z" />
<glyph unicode="X" horiz-adv-x="1112" d="M49 0h355l145 467l159 -467h374l-357 790l323 758h-340l-143 -436l-161 436h-355l338 -758z" />
<glyph unicode="Y" horiz-adv-x="1048" d="M0 1548l370 -790v-758h308v758l370 790h-354l-162 -500l-178 500h-354z" />
<glyph unicode="Z" horiz-adv-x="1048" d="M33 0h950v291h-499l532 1257h-920v-290h453z" />
<glyph unicode="[" horiz-adv-x="661" d="M112 -258h516v194h-258v1434h258v194h-516v-1822z" />
<glyph unicode="\" horiz-adv-x="516" d="M-178 1548l678 -1548h225l-676 1548h-227z" />
<glyph unicode="]" horiz-adv-x="661" d="M16 -49v-225h533v1806h-533v-209h258v-1372h-258z" />
<glyph unicode="^" d="M49 774l193 -112l258 596l258 -596l208 112l-354 774h-225z" />
<glyph unicode="_" horiz-adv-x="1032" d="M0 -226v-161h1016v161h-1016z" />
<glyph unicode="`" horiz-adv-x="612" d="M96 1468l258 -290l162 80l-209 306z" />
<glyph unicode="a" horiz-adv-x="887" d="M64 516q0 -173 36 -294.5t97 -180.5t133 -59q114 0 202 130v-112h275v1016h-275v-146q-19 78 -76.5 128t-125.5 50q-108 0 -187 -131.5t-79 -400.5zM336 526q0 105 28 179.5t86 84.5q56 0 85.5 -76t29.5 -188q0 -120 -31.5 -210t-83.5 -90q-50 0 -82 92t-32 208z" />
<glyph unicode="b" horiz-adv-x="887" d="M80 0h290v112q37 -72 77.5 -100t101.5 -28q74 0 132.5 48.5t100.5 132t63 186.5t21 212q0 133 -33 248t-101 184.5t-167 69.5q-60 0 -115 -42q-54 -41 -80 -103v724h-290v-1644zM336 492q0 78 14 150.5t40 118.5t60 46q56 0 85.5 -76.5t29.5 -188.5q0 -120 -31 -210 q-32 -90 -84 -90q-58 0 -86 71t-28 179z" />
<glyph unicode="c" horiz-adv-x="645" d="M72 510q0 -138 41.5 -264t123 -203.5t191.5 -77.5h3q83 0 181 51v258q-54 -38 -96 -38q-70 0 -110 84t-40 198q0 74 18.5 141t55 108.5t88.5 41.5q48 0 100 -35v258q-84 25 -153 25q-131 0 -222 -76.5t-136 -202t-45 -268.5z" />
<glyph unicode="d" horiz-adv-x="887" d="M49 580q0 -296 78.5 -446t190.5 -150t198 128v-112h308v1644h-292v-724q-85 147 -202 147h-2q-72 0 -136.5 -60t-103.5 -171.5t-39 -255.5zM324 528q0 112 33 195.5t93 83.5q52 0 83.5 -86t31.5 -201q0 -112 -29.5 -192t-85.5 -86q-59 0 -92.5 86t-33.5 200z" />
<glyph unicode="e" horiz-adv-x="854" d="M58 498q0 -140 45 -261.5t141 -195.5t240 -74q88 8 158 60.5t109 131.5t39 163h-241q0 -60 -26.5 -93t-63.5 -33q-48 0 -85.5 52t-37.5 152q0 32 2 50h469q8 68 8 144q0 161 -45.5 266.5t-127.5 155t-192 49.5q-123 0 -212.5 -80.5t-134.5 -212.5q-45 -130 -45 -274z M338 628q0 104 36 162t82 58t79 -48t33 -128q0 -26 -3 -44h-227z" />
<glyph unicode="f" horiz-adv-x="612" d="M49 807h113v-807h274v807h129v225h-129v258q0 111 68 111q26 -1 61 -15v258q-51 34 -127 34q-70 0 -133 -31t-103 -96t-40 -165v-354h-113v-225z" />
<glyph unicode="g" horiz-adv-x="887" d="M64 549q0 -134 23 -243.5t62.5 -185t90 -114.5t104.5 -39h1q107 0 187 145v-274q0 -60 -35 -98.5t-79 -38.5q-42 0 -74 38.5t-37 114.5h-227q-2 -14 -2 -42q0 -108 48 -184t126 -113t170 -37q98 0 186.5 42t143.5 124t55 194v1194h-275v-129q-85 149 -192 149 q-71 0 -135.5 -68t-102.5 -184t-38 -251zM336 510q0 115 27 203.5t73 93.5q64 0 95.5 -81.5t31.5 -199.5q0 -116 -29.5 -200t-83.5 -84q-57 0 -85.5 78t-28.5 190z" />
<glyph unicode="h" horiz-adv-x="870" d="M80 0h274v645q0 54 26 87q26 34 60 34q32 0 54 -30t22 -91v-645h274v824q0 116 -53 175.5t-133 59.5q-74 0 -145 -51.5t-105 -137.5v774h-274v-1644z" />
<glyph unicode="i" horiz-adv-x="436" d="M20 1340q0 -72 50 -125.5t139 -53.5q88 0 135 50.5t47 124.5t-47.5 127t-134.5 53q-91 0 -140 -52t-49 -124zM64 0h290v1032h-290v-1032z" />
<glyph unicode="j" horiz-adv-x="436" d="M16 1354q0 -94 61 -146.5t142 -52.5q82 0 141.5 51.5t59.5 147.5q-4 61 -32.5 103.5t-73 63.5t-91.5 21q-78 0 -139.5 -50t-67.5 -138zM64 -500h290v1532h-290v-1532z" />
<glyph unicode="k" horiz-adv-x="903" d="M80 0h290v467l195 -467h338l-307 596l242 436h-306l-162 -370v982h-290v-1644z" />
<glyph unicode="l" horiz-adv-x="436" d="M64 0h290v1644h-290v-1644z" />
<glyph unicode="m" horiz-adv-x="1306" d="M64 0h290v628q0 61 25 95.5t57 34.5q26 0 45 -21.5t19 -58.5v-678h290v645q0 54 24 83.5t56 29.5q26 0 46 -21t20 -59v-678h274v758q0 145 -49.5 216.5t-126.5 71.5q-70 0 -140 -57t-104 -151q-6 97 -58 151.5t-126 54.5q-70 0 -138 -52t-114 -154v194h-290v-1032z" />
<glyph unicode="n" horiz-adv-x="870" d="M64 0h306v694q0 38 24 63q22 25 52 25q23 0 38.5 -18t15.5 -56v-708h307v824q0 127 -52.5 188t-132.5 61t-154 -53t-98 -133v145h-306v-1032z" />
<glyph unicode="o" horiz-adv-x="887" d="M64 549q0 -300 101 -441t271 -141q136 0 226 61.5t137 190.5t55 330q0 178 -52 298t-143 177.5t-209 57.5q-170 0 -278 -130t-108 -403zM348 528q0 113 26.5 196t75.5 83t76 -81.5t27 -197.5q0 -121 -28 -212q-29 -90 -75 -90t-74 92t-28 210z" />
<glyph unicode="p" horiz-adv-x="887" d="M64 -484h306v596q14 -66 68.5 -103t120.5 -37q114 0 166 92q60 97 89.5 222t29.5 259q0 156 -39 284t-111 187q-72 57 -139 57q-62 0 -109.5 -43.5t-75.5 -109.5v112h-306v-1516zM334 528q0 116 27 197.5t75 81.5q49 0 75.5 -81.5t26.5 -197.5q0 -121 -28 -211.5 t-74 -90.5t-74 91t-28 211z" />
<glyph unicode="q" horiz-adv-x="887" d="M64 506q0 -291 128 -457q48 -71 142 -71q123 0 198 134v-579h292v1499h-292v-129q-32 90 -83 136.5t-111 46.5q-66 0 -129 -54q-58 -50 -101.5 -203t-43.5 -323zM348 534q0 112 26 192.5t76 80.5t76 -79q27 -80 27 -192q0 -118 -28 -206q-29 -88 -75 -88q-32 0 -55 42 t-35 109t-12 141z" />
<glyph unicode="r" horiz-adv-x="645" d="M80 0h290v549q0 136 48 198t118 62q40 -1 76 -19v306q-90 -21 -152 -74q-64 -54 -90 -119v129h-290v-1032z" />
<glyph unicode="s" horiz-adv-x="774" d="M80 96q39 -59 119.5 -94t168.5 -35q89 0 166.5 37t125.5 117.5t48 200.5q0 110 -44 177t-113 108t-116.5 70t-47.5 67q0 84 67 84q62 0 142 -70l112 208q-144 90 -284 91q-92 0 -167 -38t-118 -106.5t-43 -154.5q0 -114 46 -181.5t110.5 -107t124 -78t59.5 -84.5 q0 -41 -26 -64.5t-68 -23.5q-76 0 -150 72z" />
<glyph unicode="t" horiz-adv-x="628" d="M49 790h97v-790h304v790h115v242h-115v291h-304v-291h-97v-242z" />
<glyph unicode="u" horiz-adv-x="870" d="M64 354q0 -124 51 -212t134 -131.5t177 -43.5q97 0 184.5 45.5t142 132.5t54.5 209v678h-307v-678q0 -50 -19 -79t-45 -29t-46 29t-20 79v678h-306v-678z" />
<glyph unicode="v" horiz-adv-x="919" d="M33 1032l289 -1032h274l307 1032h-307l-129 -596l-145 596h-289z" />
<glyph unicode="w" horiz-adv-x="1419" d="M33 1032l289 -1032h258l82 322l46 306l66 -306l80 -322h258l291 1032h-291l-146 -628l-128 628h-242l-146 -628l-128 628h-289z" />
<glyph unicode="x" d="M33 0h305l162 291l145 -291h307l-307 549l275 483h-308l-112 -208l-113 208h-291l258 -467z" />
<glyph unicode="y" horiz-adv-x="919" d="M33 1032l289 -999l-176 -549h290l451 1548h-291l-146 -596l-128 596h-289z" />
<glyph unicode="z" horiz-adv-x="823" d="M33 0h709v242h-292l324 790h-710v-258h290z" />
<glyph unicode="{" horiz-adv-x="612" d="M33 565q70 -9 101.5 -31.5t44.5 -84t13 -191.5v-291q0 -104 71 -164.5t173 -60.5h192v162q-64 0 -112.5 38t-48.5 107v355q0 78 -24 132.5t-68.5 81.5t-100.5 27q80 0 136 44q57 45 57 135v386q0 80 36.5 114t124.5 46v162h-178q-119 0 -188.5 -56t-69.5 -153v-420 q0 -86 -44 -140.5t-115 -54.5v-143z" />
<glyph unicode="|" horiz-adv-x="516" d="M146 0h224v1644h-224v-1644z" />
<glyph unicode="}" horiz-adv-x="612" d="M0 -80v-162h178q72 0 127 22t85 65t30 106v453q0 78 46 120q48 41 114 41v160q-73 0 -116.5 47.5t-43.5 130.5v437q0 192 -194 192h-226v-162q60 0 90 -10t43 -40t13 -96v-337q0 -102 50 -172t142 -70q-88 -12 -140 -74q-52 -61 -52 -167v-340q0 -87 -37 -115.5 t-109 -28.5z" />
<glyph unicode="~" d="M49 467l113 -160q35 94 67.5 133t79.5 39q53 1 207 -75q120 -58 186 -58q68 0 131 53t133 181l-112 145q-46 -78 -81 -110.5t-75 -32.5q-28 0 -54 10q-26 11 -112 53q-138 74 -216 74q-75 0 -136 -59t-131 -193z" />
<glyph unicode="&#xa1;" horiz-adv-x="499" d="M49 887q0 -96 59.5 -147.5t143.5 -51.5q52 0 97 22t73 67t28 110q-4 90 -61 139t-135 49t-138.5 -50t-66.5 -138zM96 -484h324v1080h-324v-1080z" />
<glyph unicode="&#xa2;" d="M156 774q0 -94 19.5 -184.5t56.5 -162.5t89 -116.5t115 -52.5v-146h144v130q22 0 42 4t42 12q20 8 44 16v275q-44 -37 -96 -37q-67 0 -114.5 59t-47.5 171q10 151 54 237t114 86q42 0 90 -33v258q-64 33 -128 33v129h-144v-146q-94 -40 -157 -122t-93 -189t-30 -221z" />
<glyph unicode="&#xa3;" d="M33 565h193q0 -54 -16.5 -124.5t-45.5 -126.5q-30 -56 -68 -72v-242q76 37 190 37q59 0 114 -7.5t148.5 -23.5t137.5 -22t90 -6q118 0 190 55v209q-120 -42 -224 -42q-60 0 -92.5 8t-101 26t-102.5 18q-26 0 -59 -10q30 38 56.5 96t41.5 118.5t15 108.5h258v160h-258 q0 54 -22 188.5t-22 194.5q0 180 140 198q133 0 133 -151q0 -17 -4 -59h258q0 166 -53 271t-139 151t-187 46q-97 0 -187.5 -36t-142.5 -92q-108 -116 -108 -293q0 -42 4 -79.5t16 -116.5t17.5 -126t5.5 -96h-176v-160z" />
<glyph unicode="&#xa4;" d="M0 291l162 -162l80 80q138 -72 264 -72q130 0 252 72l80 -80l162 162l-80 79q72 120 71 273q1 156 -71 260l80 97l-146 145l-96 -97q-93 84 -244 84q-148 0 -256 -84l-96 97l-162 -162l96 -96q-74 -106 -74 -240q0 -142 74 -260zM274 628q0 123 70.5 188.5t169.5 65.5 q62 0 118.5 -29t91 -86t34.5 -139q-6 -114 -78 -180.5t-168 -66.5q-58 0 -111.5 28t-88 84.5t-38.5 134.5z" />
<glyph unicode="&#xa5;" d="M-33 1548l291 -596h-178v-145h242l16 -65v-80h-258v-146h258v-516h324v516h258v146h-258v80l32 65h226v145h-162l274 596h-354l-178 -596l-178 596h-355z" />
<glyph unicode="&#xa7;" d="M64 596q6 -102 78 -174.5t213 -163t207 -150.5t66 -141q-6 -58 -41.5 -92.5t-78.5 -34.5q-51 0 -86 44t-35 132h-291q0 -386 404 -386q144 0 235 47t133 124t42 166q0 66 -20 127t-58 108.5t-90 71.5q210 104 210 354q-10 120 -88.5 191t-221 142t-207.5 122t-65 141 q0 49 38 80q38 32 88 32q52 0 87 -37.5t35 -110.5q0 -28 -6 -60h291q0 436 -436 436q-110 0 -195.5 -52t-131.5 -136.5t-46 -177.5q0 -164 132 -262q-162 -134 -162 -340zM330 666q0 86 90 141q262 -126 262 -246q0 -77 -117 -157q-112 51 -173.5 121.5t-61.5 140.5z" />
<glyph unicode="&#xa8;" horiz-adv-x="612" d="M-49 1354q0 -73 46 -114q45 -42 107 -42q63 0 108.5 41t45.5 115q0 70 -45 107.5t-109 37.5q-63 0 -108 -38t-45 -107zM370 1354q0 -74 46 -115t108 -41t108 41t46 115q0 70 -45 107.5t-109 37.5q-63 0 -108.5 -37.5t-45.5 -107.5z" />
<glyph unicode="&#xa9;" horiz-adv-x="1693" d="M49 774q8 -221 116.5 -402.5t287.5 -284.5t385 -103q153 0 296.5 65t255.5 178t175 255.5t63 291.5q0 210 -107 392t-292 290t-405 108q-129 0 -265.5 -51t-252.5 -151t-186.5 -250t-70.5 -338zM209 774q0 173 82.5 322.5t224.5 236.5t308 87q133 0 252.5 -46t211 -132.5 t143.5 -206t52 -261.5q0 -173 -87 -322t-235.5 -236t-322.5 -87q-126 0 -270 71.5t-247.5 217.5t-111.5 356zM436 742q8 -102 60 -194.5t148 -151.5q96 -58 226 -58q97 0 178 39.5t128.5 110t47.5 157.5h-159q0 -79 -55.5 -126.5t-135.5 -47.5q-100 0 -178 78.5t-84 224.5 q-2 14 -2 41q0 94 36 159.5t92 96.5t120 31q77 0 137 -45t70 -121h159q0 84 -50 154.5t-132 110.5t-172 40q-74 0 -150 -28.5t-140.5 -88.5t-103.5 -156q-40 -96 -40 -226z" />
<glyph unicode="&#xaa;" horiz-adv-x="612" d="M49 1290q6 -188 58.5 -272t124.5 -84q38 0 74 24q34 24 48 58v-64h195v629h-195v-65q-18 36 -52 57t-72 21q-74 0 -127.5 -75t-53.5 -229zM64 725h501v113h-501v-113zM234 1266q0 70 19 120t54 50q36 0 54 -50t18 -120t-18.5 -120t-53.5 -50t-54 50t-19 120z" />
<glyph unicode="&#xab;" horiz-adv-x="887" d="M33 694l274 -485l177 82l-226 403l226 388l-177 96zM387 694l275 -485l176 82l-226 403l226 388l-176 96z" />
<glyph unicode="&#xac;" d="M33 612h692v-386h241v628h-933v-242z" />
<glyph unicode="&#xad;" horiz-adv-x="645" d="M49 549h531v289h-531v-289z" />
<glyph unicode="&#xae;" horiz-adv-x="1693" d="M49 774q8 -221 116.5 -402.5t287.5 -284.5t385 -103q153 0 296.5 65t255.5 178t175 255.5t63 291.5q0 210 -107 392t-292 290t-405 108q-129 0 -265.5 -51t-252.5 -151t-186.5 -250t-70.5 -338zM209 774q0 173 82.5 322.5t224.5 236.5t308 87q133 0 252.5 -46t211 -132.5 t143.5 -206t52 -261.5q0 -173 -87 -322t-235.5 -236t-322.5 -87q-126 0 -270 71.5t-247.5 217.5t-111.5 356zM516 338h178v370h160l194 -370h210l-210 370q113 13 170 70q56 56 56 174q0 258 -291 258h-467v-872zM694 838v244h289q58 0 92.5 -38t34.5 -90q0 -48 -33 -82 t-94 -34h-289z" />
<glyph unicode="&#xb1;" />
<glyph unicode="&#xb2;" horiz-adv-x="596" />
<glyph unicode="&#xb3;" horiz-adv-x="596" />
<glyph unicode="&#xb4;" horiz-adv-x="612" d="M80 1241l146 -80l258 275l-210 96z" />
<glyph unicode="&#xb5;" horiz-adv-x="870" />
<glyph unicode="&#xb6;" horiz-adv-x="1224" d="M49 1196q0 -92 36.5 -174.5t109.5 -133t175 -50.5v-1047h258v1515h130v-1515h258v1515h80v242h-726q-104 0 -176.5 -49t-108.5 -130t-36 -173z" />
<glyph unicode="&#xb7;" horiz-adv-x="499" d="M49 774q0 -130 53.5 -221.5t141.5 -138t188 -46.5t190 47t146 139t56 220q0 116 -55 198t-144 123t-189 41q-99 0 -188.5 -41t-144 -123.5t-54.5 -197.5z" />
<glyph unicode="&#xb8;" horiz-adv-x="612" d="M129 -354l113 -82l225 274l-176 82z" />
<glyph unicode="&#xb9;" horiz-adv-x="596" />
<glyph unicode="&#xba;" horiz-adv-x="612" d="M53 1256q0 -86 30.5 -164t92.5 -125t146 -47q82 0 141 45t89 120t30 160q0 86 -31 163.5t-93.5 125t-150.5 47.5q-80 0 -137.5 -45.5t-87 -120.5t-29.5 -159zM80 708h485v116h-485v-116zM242 1270q0 64 16.5 107t48.5 43q41 0 63.5 -53t22.5 -126q0 -66 -19 -113 q-18 -46 -52 -46q-36 0 -58 57.5t-22 130.5z" />
<glyph unicode="&#xbb;" horiz-adv-x="887" d="M64 291l162 -99l258 470l-258 483l-162 -80l210 -403zM420 291l160 -99l258 470l-258 483l-160 -80l208 -403z" />
<glyph unicode="&#xbc;" horiz-adv-x="1499" />
<glyph unicode="&#xbd;" horiz-adv-x="1499" />
<glyph unicode="&#xbe;" horiz-adv-x="1499" />
<glyph unicode="&#xbf;" horiz-adv-x="936" d="M49 -129q22 -206 142.5 -304.5t292.5 -98.5q108 0 195 45t139 147t52 260h-290q0 -91 -28 -134.5t-68 -43.5q-64 0 -80.5 54t-16.5 155q0 134 46.5 180.5t178.5 46.5v387h-321v-211q-156 -40 -199 -185t-43 -298zM242 887q0 -64 29 -109.5t75 -67.5t98 -22t98 22t74.5 67 t28.5 110q-4 60 -32 102.5t-71.5 64t-93.5 21.5q-79 0 -139.5 -50t-66.5 -138z" />
<glyph unicode="&#xc0;" horiz-adv-x="1081" d="M16 0h306l65 258h307l48 -258h323l-371 1548h-324zM354 1984l258 -290l162 80l-209 307zM420 484l96 677l129 -677h-225z" />
<glyph unicode="&#xc1;" horiz-adv-x="1081" d="M0 0h307l63 258h308l47 -258h323l-370 1548h-324zM322 1757l145 -79l258 274l-209 96zM404 484l96 677l128 -677h-224z" />
<glyph unicode="&#xc2;" horiz-adv-x="1081" d="M0 0h307l63 258h308l47 -258h323l-370 1548h-324zM226 1806l128 -145l178 145l176 -145l130 129l-306 258zM404 484l96 677l128 -677h-224z" />
<glyph unicode="&#xc3;" horiz-adv-x="1081" d="M0 0h307l63 258h308l47 -258h323l-370 1548h-324zM178 1757h176q12 72 54 72q13 0 30.5 -6t38.5 -16t39 -17q80 -41 142 -41q85 0 140.5 74.5t71.5 224.5h-176q0 -90 -55 -90q-17 0 -36 6t-39 14.5t-48 20.5q-84 45 -144 45q-114 0 -153 -107.5t-41 -179.5zM404 484 l96 677l128 -677h-224z" />
<glyph unicode="&#xc4;" horiz-adv-x="1081" d="M0 0h307l63 258h308l47 -258h323l-370 1548h-324zM178 1870q0 -74 45 -115t109 -41q61 0 106.5 41t45.5 115q0 70 -45 107.5t-107 37.5q-64 0 -109 -37.5t-45 -107.5zM404 484l96 677l128 -677h-224zM596 1870q0 -74 46 -115t108 -41q63 0 108 41t45 115 q0 70 -44.5 107.5t-108.5 37.5q-62 0 -108 -37.5t-46 -107.5z" />
<glyph unicode="&#xc5;" horiz-adv-x="1081" d="M0 0h307l63 258h308l47 -258h323l-370 1548h-324zM274 1870q0 -75 33 -130.5t86 -83.5t113 -28q56 0 107 27t81.5 81.5t30.5 133.5q0 104 -67 162q-66 57 -158 57q-91 0 -158.5 -57.5t-67.5 -161.5zM404 484l96 677l128 -677h-224zM404 1870q0 40 28 63t68 23t68 -23 t28 -63q0 -46 -28 -71t-68 -25q-38 0 -67 25.5t-29 70.5z" />
<glyph unicode="&#xc6;" horiz-adv-x="1386" d="M16 0h306l48 258h324l48 -258h628l-80 291h-290l-80 371h290l-65 290h-307l-80 322h307l-65 290h-630zM420 516l96 645l112 -645h-208z" />
<glyph unicode="&#xc7;" horiz-adv-x="919" d="M51 766q1 -74 13 -154q37 -208 139.5 -350.5t236.5 -211t264 -68.5q92 0 166 34v275q-56 -15 -116 -15q-194 0 -290 156t-96 366q0 132 36 234q32 92 88.5 146t123 76t134.5 22t120 -18v258q-87 36 -188 36q-126 0 -246 -58t-210 -171q-76 -98 -125.5 -245.5 t-49.5 -311.5zM291 -387l129 -63l225 272l-195 82z" />
<glyph unicode="&#xc8;" horiz-adv-x="807" d="M96 0h629v291h-305v337h258v308h-258v322h305v290h-629v-1548zM209 1968l258 -290l161 79l-208 307z" />
<glyph unicode="&#xc9;" horiz-adv-x="807" d="M96 0h629v291h-305v337h258v308h-258v322h305v290h-629v-1548zM192 1757l146 -79l258 274l-209 96z" />
<glyph unicode="&#xca;" horiz-adv-x="807" d="M96 0h629v291h-305v337h258v308h-258v322h305v290h-629v-1548zM96 1790l130 -146l178 146l176 -146l128 130l-304 258z" />
<glyph unicode="&#xcb;" horiz-adv-x="807" d="M33 1856q0 -74 45.5 -116t107.5 -42q60 0 106 42t46 116q0 68 -45 106.5t-107 38.5q-63 0 -108 -38.5t-45 -106.5zM96 0h629v291h-305v337h258v308h-258v322h305v290h-629v-1548zM450 1856q0 -74 46.5 -116t107.5 -42q62 0 108 42t46 116q0 68 -46 106.5t-108 38.5 q-61 0 -107.5 -38.5t-46.5 -106.5z" />
<glyph unicode="&#xcc;" horiz-adv-x="516" d="M64 1968l258 -290l162 79l-210 307zM112 0h292v1548h-292v-1548z" />
<glyph unicode="&#xcd;" horiz-adv-x="516" d="M64 1757l145 -79l258 274l-209 96zM112 0h292v1548h-292v-1548z" />
<glyph unicode="&#xce;" horiz-adv-x="516" d="M-33 1806l129 -145l178 145l176 -145l130 129l-306 258zM112 0h292v1548h-292v-1548z" />
<glyph unicode="&#xcf;" horiz-adv-x="516" d="M-80 1856q0 -74 46 -116t108 -42q61 0 106.5 42t45.5 116q0 68 -46 106q-44 39 -106 39t-108 -38.5t-46 -106.5zM112 0h292v1548h-292v-1548zM338 1856q0 -74 46 -116t108 -42t107.5 42t45.5 116q0 68 -45.5 106.5t-107.5 38.5t-108 -38.5t-46 -106.5z" />
<glyph unicode="&#xd0;" horiz-adv-x="1081" />
<glyph unicode="&#xd1;" horiz-adv-x="1177" d="M129 0h307v920l371 -920h275v1548h-292v-952l-354 952h-307v-1548zM258 1741h178q10 71 52 71q13 0 29.5 -6t38.5 -16t40 -16q80 -42 142 -42q86 0 142 74q56 76 72 226h-178q0 -90 -53 -90q-16 0 -34 6t-47 18q-30 12 -44 18q-78 44 -142 44q-116 0 -155 -107.5 t-41 -179.5z" />
<glyph unicode="&#xd2;" horiz-adv-x="1194" d="M47 738q0 -10 1 -30t1 -30q10 -198 65 -336.5t137.5 -220.5t175.5 -118t185 -36q158 18 260.5 105.5t154 207.5t68.5 234t17 211q0 214 -45 373t-122 258t-174.5 145.5t-205.5 46.5q-166 -8 -283 -116t-176 -290t-59 -404zM368 708q0 35 2 50q0 500 210 516 q228 0 227 -516q0 -246 -55.5 -375t-155.5 -141q-75 0 -126.5 77t-76.5 186t-25 203zM387 1968l258 -290l162 79l-211 307z" />
<glyph unicode="&#xd3;" horiz-adv-x="1194" d="M47 738q0 -10 1 -30t1 -30q10 -198 65 -336.5t137.5 -220.5t175.5 -118t185 -36q158 18 260.5 105.5t154 207.5t68.5 234t17 211q0 214 -45 373t-122 258t-174.5 145.5t-205.5 46.5q-166 -8 -283 -116t-176 -290t-59 -404zM368 708q0 35 2 50q0 500 210 516 q228 0 227 -516q0 -246 -55.5 -375t-155.5 -141q-75 0 -126.5 77t-76.5 186t-25 203zM387 1757l145 -79l258 274l-210 96z" />
<glyph unicode="&#xd4;" horiz-adv-x="1194" d="M47 738q0 -10 1 -30t1 -30q10 -198 65 -336.5t137.5 -220.5t175.5 -118t185 -36q158 18 260.5 105.5t154 207.5t68.5 234t17 211q0 214 -45 373t-122 258t-174.5 145.5t-205.5 46.5q-166 -8 -283 -116t-176 -290t-59 -404zM307 1741l143 -80l258 275l-208 96zM368 708 q0 35 2 50q0 500 210 516q228 0 227 -516q0 -246 -55.5 -375t-155.5 -141q-75 0 -126.5 77t-76.5 186t-25 203zM678 1741l146 -80l258 275l-212 96z" />
<glyph unicode="&#xd5;" horiz-adv-x="1194" d="M47 738q0 -10 1 -30t1 -30q10 -198 65 -336.5t137.5 -220.5t175.5 -118t185 -36q158 18 260.5 105.5t154 207.5t68.5 234t17 211q0 214 -45 373t-122 258t-174.5 145.5t-205.5 46.5q-166 -8 -283 -116t-176 -290t-59 -404zM307 1741l143 -80l258 275l-208 96zM368 708 q0 35 2 50q0 500 210 516q228 0 227 -516q0 -246 -55.5 -375t-155.5 -141q-75 0 -126.5 77t-76.5 186t-25 203zM678 1741l146 -80l258 275l-212 96z" />
<glyph unicode="&#xd6;" horiz-adv-x="1194" d="M47 738q0 -10 1 -30t1 -30q10 -198 65 -336.5t137.5 -220.5t175.5 -118t185 -36q158 18 260.5 105.5t154 207.5t68.5 234t17 211q0 214 -45 373t-122 258t-174.5 145.5t-205.5 46.5q-166 -8 -283 -116t-176 -290t-59 -404zM226 1870q0 -73 45.5 -114.5t107.5 -41.5 t107.5 41t45.5 115q0 70 -45 107.5t-108 37.5q-62 0 -107.5 -38t-45.5 -107zM368 708q0 35 2 50q0 500 210 516q228 0 227 -516q0 -246 -55.5 -375t-155.5 -141q-75 0 -126.5 77t-76.5 186t-25 203zM645 1870q0 -74 46 -115q45 -41 107 -41q63 0 108.5 41t45.5 115 q0 70 -45 107.5t-109 37.5q-62 0 -107.5 -37.5t-45.5 -107.5z" />
<glyph unicode="&#xd8;" horiz-adv-x="1194" d="M37 805q0 -290 125 -596l-98 -145l114 -97l80 129q200 -132 364 -131q122 0 220 65.5t165.5 180.5t101.5 258t34 297q0 96 -13.5 191t-42.5 185t-71 164l112 177l-128 81l-80 -128q-156 142 -334 141q-108 0 -207.5 -54.5t-177 -157.5t-121 -246t-43.5 -314zM381 780 q0 147 17.5 255.5t65.5 173.5t132 65q58 0 95 -37.5t51 -91.5l-355 -580q-6 107 -6 215zM436 370l354 566q10 -104 11 -182q0 -98 -11.5 -188t-34.5 -159t-59 -109t-84 -40q-58 0 -98.5 25.5t-77.5 86.5z" />
<glyph unicode="&#xd9;" horiz-adv-x="1112" d="M96 420q9 -286 145.5 -369.5t323.5 -83.5q170 0 294 77.5t124 342.5v1161h-289v-1128q0 -64 -8 -101t-36 -57t-85 -20q-84 0 -131 44t-47 164v1098h-291v-1128zM322 1952l258 -291l162 80l-210 307z" />
<glyph unicode="&#xda;" horiz-adv-x="1112" d="M96 420q9 -286 145.5 -369.5t323.5 -83.5q170 0 294 77.5t124 342.5v1161h-289v-1128q0 -64 -8 -101t-36 -57t-85 -20q-84 0 -131 44t-47 164v1098h-291v-1128zM354 1741l146 -80l258 275l-209 96z" />
<glyph unicode="&#xdb;" horiz-adv-x="1112" d="M96 420q9 -286 145.5 -369.5t323.5 -83.5q170 0 294 77.5t124 342.5v1161h-289v-1128q0 -64 -8 -101t-36 -57t-85 -20q-84 0 -131 44t-47 164v1098h-291v-1128zM209 1741l145 -80l258 275l-208 96zM580 1741l145 -80l258 275l-209 96z" />
<glyph unicode="&#xdc;" horiz-adv-x="1112" d="M96 420q9 -286 145.5 -369.5t323.5 -83.5q170 0 294 77.5t124 342.5v1161h-289v-1128q0 -64 -8 -101t-36 -57t-85 -20q-84 0 -131 44t-47 164v1098h-291v-1128zM226 1822q0 -74 46 -115.5t107 -41.5q62 0 107.5 41.5t45.5 115.5q0 68 -45 107t-108 39q-62 0 -107.5 -39 t-45.5 -107zM645 1822q0 -74 46.5 -115.5t106.5 -41.5q62 0 108 41.5t46 115.5q0 68 -45 107t-109 39q-62 0 -107.5 -39t-45.5 -107z" />
<glyph unicode="&#xdd;" horiz-adv-x="1048" />
<glyph unicode="&#xde;" />
<glyph unicode="&#xdf;" horiz-adv-x="983" d="M33 790h113v-790h274v1274q0 64 22 98q22 35 52 35q29 0 50 -34.5t21 -98.5q0 -17 2.5 -51.5t2.5 -61.5q0 -60 -18 -94.5t-68 -34.5v-258q40 0 69 -42t44 -109t15 -137q0 -100 -30 -164t-98 -64v-258q46 -8 94 -8q172 0 243 111t82 317q0 120 -11.5 207.5t-51 159 t-115.5 116.5q74 49 112.5 134t38.5 187q0 111 -44 211.5t-129 163t-203 62.5q-110 0 -190.5 -43.5t-122 -120.5t-41.5 -174v-307h-113v-226z" />
<glyph unicode="&#xe0;" horiz-adv-x="887" d="M64 516q0 -173 36 -294.5t97 -180.5t133 -59q114 0 202 130v-112h275v1016h-275v-146q-19 78 -76.5 128t-125.5 50q-108 0 -187 -131.5t-79 -400.5zM242 1468l258 -290l162 80l-212 306zM336 526q0 105 28 179.5t86 84.5q56 0 85.5 -76t29.5 -188q0 -120 -31.5 -210 t-83.5 -90q-50 0 -82 92t-32 208z" />
<glyph unicode="&#xe1;" horiz-adv-x="887" d="M64 516q0 -173 36 -294.5t97 -180.5t133 -59q114 0 202 130v-112h275v1016h-275v-146q-19 78 -76.5 128t-125.5 50q-108 0 -187 -131.5t-79 -400.5zM242 1258l145 -80l258 274l-209 96zM336 526q0 105 28 179.5t86 84.5q56 0 85.5 -76t29.5 -188q0 -120 -31.5 -210 t-83.5 -90q-50 0 -82 92t-32 208z" />
<glyph unicode="&#xe2;" horiz-adv-x="887" d="M64 516q0 -173 36 -294.5t97 -180.5t133 -59q114 0 202 130v-112h275v1016h-275v-146q-19 78 -76.5 128t-125.5 50q-108 0 -187 -131.5t-79 -400.5zM146 1290l128 -145l176 145l178 -145l130 129l-308 258zM336 526q0 105 28 179.5t86 84.5q56 0 85.5 -76t29.5 -188 q0 -120 -31.5 -210t-83.5 -90q-50 0 -82 92t-32 208z" />
<glyph unicode="&#xe3;" horiz-adv-x="887" d="M64 516q0 -173 36 -294.5t97 -180.5t133 -59q114 0 202 130v-112h275v1016h-275v-146q-19 78 -76.5 128t-125.5 50q-108 0 -187 -131.5t-79 -400.5zM96 1210h178q10 70 52 70q14 0 30 -6t39 -16t41 -17q76 -41 140 -41q86 0 142 75t72 224h-178q0 -90 -53 -90 q-16 0 -34.5 6.5t-46.5 18.5l-42 18q-79 43 -143 43q-82 0 -126.5 -63.5t-57 -126.5t-13.5 -95zM336 526q0 105 28 179.5t86 84.5q56 0 85.5 -76t29.5 -188q0 -120 -31.5 -210t-83.5 -90q-50 0 -82 92t-32 208z" />
<glyph unicode="&#xe4;" horiz-adv-x="887" d="M64 516q0 -173 36 -294.5t97 -180.5t133 -59q114 0 202 130v-112h275v1016h-275v-146q-19 78 -76.5 128t-125.5 50q-108 0 -187 -131.5t-79 -400.5zM80 1354q0 -73 46 -114.5t108 -41.5q63 0 108 41t45 115q0 70 -44.5 107.5t-108.5 37.5q-63 0 -108.5 -38t-45.5 -107z M336 526q0 105 28 179.5t86 84.5q56 0 85.5 -76t29.5 -188q0 -120 -31.5 -210t-83.5 -90q-50 0 -82 92t-32 208zM500 1354q0 -74 46 -115t108 -41t107.5 41t45.5 115q0 70 -45 108q-44 37 -108 37q-63 0 -108.5 -37.5t-45.5 -107.5z" />
<glyph unicode="&#xe5;" horiz-adv-x="887" d="M64 516q0 -173 36 -294.5t97 -180.5t133 -59q114 0 202 130v-112h275v1016h-275v-146q-19 78 -76.5 128t-125.5 50q-108 0 -187 -131.5t-79 -400.5zM209 1354q0 -114 69.5 -178t163.5 -64q56 0 107 27t82 81q31 56 31 134q0 103 -67 161t-159 58t-159.5 -58t-67.5 -161z M336 526q0 105 28 179.5t86 84.5q56 0 85.5 -76t29.5 -188q0 -120 -31.5 -210t-83.5 -90q-50 0 -82 92t-32 208zM338 1354q0 41 29 63.5t69 22.5t68 -22t28 -64q0 -45 -28.5 -70.5t-67.5 -25.5q-40 0 -69 26t-29 70z" />
<glyph unicode="&#xe6;" horiz-adv-x="1306" d="M64 322q0 -100 35 -178t111 -124t194 -53q70 0 142 35q72 34 116 110q14 -25 28 -48.5t40.5 -45.5t76 -36.5t129.5 -14.5q78 0 144 35.5t109.5 112.5t51.5 192h-241q-6 -57 -32 -87t-63 -30q-44 0 -79.5 45t-35.5 119v82h468q6 58 6 119q0 134 -36.5 247t-117 184.5 t-207.5 78.5q-151 0 -241 -178q-34 174 -260 174q-128 0 -256 -45v-258q134 59 220 59q76 0 113 -51.5t37 -169.5q-76 22 -148 22q-126 0 -210 -73t-94 -223zM328 293q0 41 27 73t81 38q54 -6 81.5 -37.5t27.5 -73.5q0 -46 -30 -80.5t-79 -34.5q-48 0 -78 35t-30 80z M790 612q0 68 26 147t87 79q64 0 89 -70q24 -70 24 -156h-226z" />
<glyph unicode="&#xe7;" horiz-adv-x="645" d="M56 510q0 -140 41.5 -265.5t122.5 -202.5q82 -77 192 -77q85 -1 184 51v258q-54 -38 -96 -38q-70 0 -110 84t-40 198q0 74 18 141t55 108.5t89 41.5q48 0 100 -35v258q-84 25 -153 25q-131 0 -222 -76.5t-136 -202t-45 -268.5zM146 -387l145 -80l209 275l-178 80z" />
<glyph unicode="&#xe8;" horiz-adv-x="854" d="M58 498q0 -140 45 -261.5t141 -195.5t240 -74q88 8 158 60.5t109 131.5t39 163h-241q0 -60 -26.5 -93t-63.5 -33q-48 0 -85.5 52t-37.5 152q0 32 2 50h469q8 68 8 144q0 161 -45.5 266.5t-127.5 155t-192 49.5q-123 0 -212.5 -80.5t-134.5 -212.5q-45 -130 -45 -274z M209 1468l258 -290l161 80l-208 306zM338 628q0 104 36 162t82 58t79 -48t33 -128q0 -26 -3 -44h-227z" />
<glyph unicode="&#xe9;" horiz-adv-x="854" d="M58 498q0 -140 45 -261.5t141 -195.5t240 -74q88 8 158 60.5t109 131.5t39 163h-241q0 -60 -26.5 -93t-63.5 -33q-48 0 -85.5 52t-37.5 152q0 32 2 50h469q8 68 8 144q0 161 -45.5 266.5t-127.5 155t-192 49.5q-123 0 -212.5 -80.5t-134.5 -212.5q-45 -130 -45 -274z M226 1258l144 -80l258 274l-208 96zM338 628q0 104 36 162t82 58t79 -48t33 -128q0 -26 -3 -44h-227z" />
<glyph unicode="&#xea;" horiz-adv-x="854" d="M41 498q0 -140 45.5 -261.5t141.5 -195.5t239 -74q88 8 158.5 60.5t109.5 131.5t39 163h-242q0 -60 -26 -93t-64 -33q-48 0 -85 52t-37 152q0 32 2 50h468q8 68 8 144q0 161 -45 266.5t-126.5 155t-190.5 49.5q-123 0 -212.5 -80.5t-136 -211.5t-46.5 -275zM112 1306 l130 -145l178 145l176 -145l129 129l-305 258zM322 628q0 104 36 162q34 58 82 58q45 0 78 -48t33 -128q0 -26 -2 -44h-227z" />
<glyph unicode="&#xeb;" horiz-adv-x="854" d="M58 498q0 -140 45 -261.5t141 -195.5t240 -74q88 8 158 60.5t109 131.5t39 163h-241q0 -60 -26.5 -93t-63.5 -33q-48 0 -85.5 52t-37.5 152q0 32 2 50h469q8 68 8 144q0 161 -45.5 266.5t-127.5 155t-192 49.5q-123 0 -212.5 -80.5t-134.5 -212.5q-45 -130 -45 -274z M80 1354q0 -73 46 -114.5t108 -41.5q63 0 108 41t45 115q0 70 -44.5 107.5t-108.5 37.5q-63 0 -108.5 -38t-45.5 -107zM338 628q0 104 36 162t82 58t79 -48t33 -128q0 -26 -3 -44h-227zM500 1354q0 -74 46 -115t108 -41t107.5 41t45.5 115q0 70 -45 108q-44 37 -108 37 q-63 0 -108.5 -37.5t-45.5 -107.5z" />
<glyph unicode="&#xec;" horiz-adv-x="436" d="M16 1468l258 -290l162 80l-210 306zM64 0h290v1016h-290v-1016z" />
<glyph unicode="&#xed;" horiz-adv-x="436" d="M64 0h290v1016h-290v-1016zM80 1241l146 -80l258 275l-210 96z" />
<glyph unicode="&#xee;" horiz-adv-x="436" d="M-49 1306l129 -145l178 145l178 -145l129 129l-307 258zM64 0h290v1016h-290v-1016z" />
<glyph unicode="&#xef;" horiz-adv-x="436" d="M-112 1354q0 -74 45 -115t108 -41q61 0 106 41t45 115q0 70 -44.5 107.5t-106.5 37.5q-64 0 -108.5 -37.5t-44.5 -107.5zM64 0h290v1016h-290v-1016zM307 1354q0 -74 45.5 -115t108.5 -41q61 0 106 41t45 115q0 70 -44.5 107.5t-106.5 37.5q-64 0 -109 -37.5t-45 -107.5z " />
<glyph unicode="&#xf0;" horiz-adv-x="887" />
<glyph unicode="&#xf1;" horiz-adv-x="870" d="M64 0h306v694q0 38 24 63q22 25 52 25q23 0 38.5 -18t15.5 -56v-708h307v824q0 127 -52.5 188t-132.5 61t-154 -53t-98 -133v145h-306v-1032zM80 1241h178q12 72 54 72q13 0 26.5 -5t43.5 -18t38 -16q74 -41 141 -41q85 0 141 74.5t72 224.5h-178q0 -90 -54 -90 q-17 0 -35.5 6t-38.5 14.5t-48 20.5q-86 45 -144 45q-83 0 -126.5 -64t-56 -127.5t-13.5 -95.5z" />
<glyph unicode="&#xf2;" horiz-adv-x="887" d="M64 549q0 -300 101 -441t271 -141q136 0 226 61.5t137 190.5t55 330q0 178 -52 298t-143 177.5t-209 57.5q-170 0 -278 -130t-108 -403zM226 1468l258 -290l161 80l-209 306zM348 528q0 113 26.5 196t75.5 83t76 -81.5t27 -197.5q0 -121 -28 -212q-29 -90 -75 -90t-74 92 t-28 210z" />
<glyph unicode="&#xf3;" horiz-adv-x="887" d="M64 549q0 -300 101 -441t271 -141q136 0 226 61.5t137 190.5t55 330q0 178 -52 298t-143 177.5t-209 57.5q-170 0 -278 -130t-108 -403zM322 1258l145 -80l258 274l-209 96zM348 528q0 113 26.5 196t75.5 83t76 -81.5t27 -197.5q0 -121 -28 -212q-29 -90 -75 -90t-74 92 t-28 210z" />
<glyph unicode="&#xf4;" horiz-adv-x="887" d="M64 549q0 -300 101 -441t271 -141q136 0 226 61.5t137 190.5t55 330q0 178 -52 298t-143 177.5t-209 57.5q-170 0 -278 -130t-108 -403zM192 1258l146 -80l258 274l-209 96zM348 528q0 113 26.5 196t75.5 83t76 -81.5t27 -197.5q0 -121 -28 -212q-29 -90 -75 -90t-74 92 t-28 210zM532 1258l146 -80l258 274l-211 96z" />
<glyph unicode="&#xf5;" horiz-adv-x="887" d="M64 549q0 -300 101 -441t271 -141q136 0 226 61.5t137 190.5t55 330q0 178 -52 298t-143 177.5t-209 57.5q-170 0 -278 -130t-108 -403zM192 1258l146 -80l258 274l-209 96zM348 528q0 113 26.5 196t75.5 83t76 -81.5t27 -197.5q0 -121 -28 -212q-29 -90 -75 -90t-74 92 t-28 210zM532 1258l146 -80l258 274l-211 96z" />
<glyph unicode="&#xf6;" horiz-adv-x="887" d="M64 549q0 -300 101 -441t271 -141q136 0 226 61.5t137 190.5t55 330q0 178 -52 298t-143 177.5t-209 57.5q-170 0 -278 -130t-108 -403zM112 1354q0 -74 46.5 -115t107.5 -41q62 0 108 41t46 115q0 70 -45 107.5t-109 37.5q-62 0 -108 -37.5t-46 -107.5zM348 528 q0 113 26.5 196t75.5 83t76 -81.5t27 -197.5q0 -121 -28 -212q-29 -90 -75 -90t-74 92t-28 210zM532 1354q0 -74 46 -115t108 -41t107 41t45 115q0 70 -44.5 107.5t-107.5 37.5q-64 0 -109 -37.5t-45 -107.5z" />
<glyph unicode="&#xf7;" />
<glyph unicode="&#xf8;" horiz-adv-x="887" d="M60 508q0 -234 86 -346l-82 -129l98 -82l64 98q119 -77 237 -77q130 0 228.5 92t132.5 243q24 132 24 244q0 214 -90 352l66 113l-99 80l-63 -96q-96 74 -210 73q-152 -1 -260 -121q-66 -79 -99 -199t-33 -245zM336 526q0 110 29.5 187t84.5 77q48 0 75.5 -83t27.5 -197 q0 -110 -26.5 -189t-76.5 -79q-52 0 -83 87t-31 197z" />
<glyph unicode="&#xf9;" horiz-adv-x="870" d="M64 354q0 -124 51 -212t134 -131.5t177 -43.5q97 0 184.5 45.5t142 132.5t54.5 209v678h-307v-678q0 -50 -19 -79t-45 -29t-46 29t-20 79v678h-306v-678zM242 1468l258 -290l162 80l-212 306z" />
<glyph unicode="&#xfa;" horiz-adv-x="870" d="M64 354q0 -124 51 -212t134 -131.5t177 -43.5q97 0 184.5 45.5t142 132.5t54.5 209v678h-307v-678q0 -50 -19 -79t-45 -29t-46 29t-20 79v678h-306v-678zM291 1258l145 -80l258 274l-210 96z" />
<glyph unicode="&#xfb;" horiz-adv-x="870" d="M64 354q0 -124 51 -212t134 -131.5t177 -43.5q97 0 184.5 45.5t142 132.5t54.5 209v678h-307v-678q0 -50 -19 -79t-45 -29t-46 29t-20 79v678h-306v-678zM146 1258l145 -80l258 274l-211 96zM484 1258l144 -80l259 274l-209 96z" />
<glyph unicode="&#xfc;" horiz-adv-x="870" d="M64 354q0 -124 51 -212t134 -131.5t177 -43.5q97 0 184.5 45.5t142 132.5t54.5 209v678h-307v-678q0 -50 -19 -79t-45 -29t-46 29t-20 79v678h-306v-678zM96 1340q0 -74 46 -116t108 -42t108 42t46 116q0 68 -46 106.5t-108 38.5t-108 -38.5t-46 -106.5zM516 1340 q0 -74 46 -116t108 -42t108 42t46 116q0 68 -46 106.5t-108 38.5q-61 0 -107.5 -38.5t-46.5 -106.5z" />
<glyph unicode="&#xfd;" horiz-adv-x="919" />
<glyph unicode="&#xfe;" horiz-adv-x="887" />
<glyph unicode="&#xff;" horiz-adv-x="919" d="M33 1032l289 -999l-176 -549h290l451 1548h-291l-146 -596l-128 596h-289zM112 1370q0 -74 46.5 -115t107.5 -41q62 0 108 41t46 115q0 70 -45 108t-109 38q-62 0 -108 -38t-46 -108zM532 1370q0 -74 46 -115t108 -41t107 41t45 115q0 70 -44.5 108t-107.5 38 q-64 0 -109 -38t-45 -108z" />
<glyph unicode="&#x152;" horiz-adv-x="1532" d="M64 774q0 -104 16.5 -229.5t67 -256t149.5 -217.5t252 -87q60 0 139.5 35t135.5 110v-129h628v291h-324v371h292v274h-292v338h324v290h-645v-81q-44 55 -111 76.5t-131 21.5q-169 -6 -273.5 -95.5t-153 -218.5t-61.5 -252t-13 -241zM389 786q0 132 25 250.5t75.5 192 t122.5 77.5q66 0 115 -76t74 -199t25 -261q0 -136 -24.5 -252.5t-73 -188t-116.5 -71.5q-70 0 -120.5 74.5t-76.5 196.5q-26 121 -26 257z" />
<glyph unicode="&#x153;" horiz-adv-x="1339" d="M49 532q0 -181 51 -306.5t134 -187.5q84 -62 176 -62q140 0 235 120q35 -55 109 -88q76 -34 158 -34q80 0 149 34t115 110q44 75 48 189h-224q0 -64 -23 -98.5t-55 -34.5q-50 0 -91 68t-41 194h451q4 70 4 98q0 164 -48.5 281t-128 174t-169.5 57q-133 0 -237 -110 q-38 54 -101 85t-135 31q-92 0 -176.5 -54t-140 -171t-60.5 -295zM334 504q0 121 28 212t74 91t74 -91t28 -212q0 -116 -26.5 -197t-75.5 -81q-48 0 -75 81t-27 197zM790 612q6 104 45 162t87 58q42 0 71 -41t29 -113q0 -28 -6 -66h-226z" />
<glyph unicode="&#x2c6;" horiz-adv-x="612" d="M0 1306l129 -145l178 145l177 -145l128 129l-305 258z" />
<glyph unicode="&#x2dc;" horiz-adv-x="612" d="M-33 1224h179q10 72 50 72q14 0 31 -5.5t40 -16t40 -16.5q75 -42 141 -42q85 0 142 74q56 76 72 226h-178q0 -90 -54 -90q-16 0 -34 6t-47 18t-42 18q-78 44 -141 44q-84 0 -128 -64t-57 -128t-14 -96z" />
<glyph unicode="&#x2000;" horiz-adv-x="1044" />
<glyph unicode="&#x2001;" horiz-adv-x="2089" />
<glyph unicode="&#x2002;" horiz-adv-x="1044" />
<glyph unicode="&#x2003;" horiz-adv-x="2089" />
<glyph unicode="&#x2004;" horiz-adv-x="696" />
<glyph unicode="&#x2005;" horiz-adv-x="522" />
<glyph unicode="&#x2006;" horiz-adv-x="348" />
<glyph unicode="&#x2007;" horiz-adv-x="348" />
<glyph unicode="&#x2008;" horiz-adv-x="261" />
<glyph unicode="&#x2009;" horiz-adv-x="417" />
<glyph unicode="&#x200a;" horiz-adv-x="116" />
<glyph unicode="&#x2010;" horiz-adv-x="645" d="M49 549h531v289h-531v-289z" />
<glyph unicode="&#x2011;" horiz-adv-x="645" d="M49 549h531v289h-531v-289z" />
<glyph unicode="&#x2012;" horiz-adv-x="645" d="M49 549h531v289h-531v-289z" />
<glyph unicode="&#x2013;" horiz-adv-x="1032" d="M0 532h1032v292h-1032v-292z" />
<glyph unicode="&#x2014;" horiz-adv-x="2048" d="M-16 549h16h2048v289h-16h-2048v-289z" />
<glyph unicode="&#x2018;" horiz-adv-x="612" d="M49 903h321l195 629h-195z" />
<glyph unicode="&#x2019;" horiz-adv-x="612" d="M33 920h209l307 628h-307z" />
<glyph unicode="&#x201c;" d="M33 920h305l211 628h-211zM420 920h305l195 628h-195z" />
<glyph unicode="&#x201d;" d="M49 920h209l307 628h-307zM436 920h226l290 628h-307z" />
<glyph unicode="&#x201e;" d="M49 -307h209l322 645h-322zM436 -307h209l321 645h-321z" />
<glyph unicode="&#x2022;" horiz-adv-x="854" d="M68 514q0 -81 61 -134.5t139 -53.5q52 0 97 27t71 83q25 52 25 104q0 79 -56 128q-57 49 -133 49q-94 0 -160 -72q-44 -65 -44 -131z" />
<glyph unicode="&#x2026;" horiz-adv-x="2048" d="M140 166q0 -82 60 -141.5t140 -59.5q70 -1 127 51q67 62 67 140q0 79 -62 140q-62 60 -144 60q-100 0 -166 -98q-22 -42 -22 -92zM819 146q0 -77 59.5 -130t131.5 -53q60 0 102 37q86 68 86 158q0 76 -57 132t-131 56q-90 0 -156 -88q-35 -56 -35 -112zM1493 150 q0 -78 59.5 -135.5t135.5 -57.5q94 0 151 92q33 55 33 109q0 50 -25 91t-67 65t-90 24q-90 0 -158 -80q-39 -54 -39 -108z" />
<glyph unicode="&#x202f;" horiz-adv-x="417" />
<glyph unicode="&#x2039;" horiz-adv-x="532" d="M49 678l273 -486l178 82l-226 404l226 387l-178 96z" />
<glyph unicode="&#x203a;" horiz-adv-x="532" d="M64 291l162 -82l274 485l-274 484l-162 -96l210 -388z" />
<glyph unicode="&#x205f;" horiz-adv-x="522" />
<glyph unicode="&#x2122;" horiz-adv-x="1644" d="M16 1386h242v-661h162v661h242v162h-646v-162zM742 708h178v678l208 -678h96l228 678v-678h176v840h-274l-176 -516l-162 516h-274v-840z" />
<glyph unicode="&#x25fc;" horiz-adv-x="1032" d="M0 0v1032h1032v-1032h-1032z" />
</font>
</defs>
</svg>
