<?xml version="1.0" standalone="no"?>
<!DOCTYPE svg PUBLIC "-//W3C//DTD SVG 1.1//EN" "http://www.w3.org/Graphics/SVG/1.1/DTD/svg11.dtd" >
<svg xmlns="http://www.w3.org/2000/svg" xmlns:xlink="http://www.w3.org/1999/xlink" version="1.1">
<metadata></metadata>
<defs>
<font id="futura_condensedregular" horiz-adv-x="774" >
<font-face units-per-em="2048" ascent="1638" descent="-410" />
<missing-glyph horiz-adv-x="420" />
<glyph horiz-adv-x="0" />
<glyph unicode="&#xd;" horiz-adv-x="420" />
<glyph unicode=" "  horiz-adv-x="420" />
<glyph unicode="&#x09;" horiz-adv-x="420" />
<glyph unicode="&#xa0;" horiz-adv-x="420" />
<glyph unicode="!" horiz-adv-x="516" d="M129 113q0 -62 41.5 -98t95.5 -36q55 0 96.5 36t41.5 98q0 59 -39 93t-94 34q-56 0 -99 -34t-43 -93zM146 371h225v1178h-225v-1178z" />
<glyph unicode="&#x22;" horiz-adv-x="516" d="M33 1565l16 -469h129l31 469h-176zM307 1565l15 -469h129l33 469h-177z" />
<glyph unicode="#" horiz-adv-x="838" d="M-80 533h209l-162 -533h130l161 533h162l-162 -533h129l162 533h225l33 112h-227l82 258h225l33 113h-225l159 533h-129l-160 -533h-161l161 533h-129l-161 -533h-226l-32 -113h225l-80 -258h-211zM291 645l80 258h162l-82 -258h-160z" />
<glyph unicode="$" horiz-adv-x="838" d="M49 1145q0 -167 68 -258t201 -174t197.5 -153t64.5 -205q0 -87 -55 -145t-127 -58q-56 0 -101 38t-71 117l-162 -98q24 -64 71.5 -115t105.5 -81t114 -30v-129h96v129q86 0 159 45t118.5 147t45.5 261q0 168 -67 253q-33 43 -81 81.5t-116 76.5q-129 73 -190.5 136 t-61.5 195q0 87 46.5 136.5t113.5 49.5q61 0 111.5 -40.5t66.5 -112.5l162 96q-42 120 -124.5 172.5t-182.5 52.5v146h-96v-146q-136 -13 -221 -105t-85 -282z" />
<glyph unicode="%" horiz-adv-x="1129" d="M97 1225q0 -156 24.5 -243.5t70 -122.5t115.5 -35q211 0 211 335v29v20q-2 12 -2 17q0 187 -55.5 263.5t-169.5 76.5q-51 0 -95.5 -35.5t-71.5 -112.5t-27 -192zM113 0h129l741 1532h-112zM215 1182q0 107 25 188.5t67 81.5t69.5 -86t27.5 -194q0 -102 -24.5 -169 t-72.5 -67q-42 0 -67 72t-25 174zM613 371q0 -156 24.5 -243.5t70.5 -124t116 -36.5q210 0 210 338v29v20q-2 12 -2 17q0 186 -55.5 262t-169.5 76q-51 0 -95.5 -35.5t-71.5 -111t-27 -191.5zM731 326q0 107 25 188.5t68 81.5q42 0 69 -86t27 -194q0 -100 -24 -168t-72 -68 q-45 0 -69 72t-24 174z" />
<glyph unicode="&#x26;" horiz-adv-x="1016" d="M64 338q0 -88 48.5 -170t130.5 -132.5t171 -50.5q151 0 264 144l80 -129h209l-160 258l160 242l-129 113l-129 -193l-209 354q122 73 186 177.5t64 207.5q0 120 -79 198.5t-220 78.5q-146 0 -220.5 -81.5t-74.5 -211.5q0 -175 119 -352q-86 -96 -132 -169 q-20 -32 -37.5 -71t-25.5 -68q-16 -63 -16 -145zM258 375q0 129 113 254l225 -371q-63 -96 -157 -96q-73 0 -127 61.5t-54 151.5zM328 1131q0 45 21 81t54 57t64 21q52 0 78.5 -35t26.5 -91q0 -44 -17.5 -91.5t-52.5 -90t-82 -62.5l-65 112q-27 51 -27 99z" />
<glyph unicode="'" horiz-adv-x="436" d="M80 1016l98 -49l209 549l-178 65z" />
<glyph unicode="(" horiz-adv-x="565" d="M84 670q0 -54 3 -116.5t8 -120.5q10 -115 33 -234t54 -229q35 -115 76 -212l209 49q-53 115 -93 252.5t-61 290.5q-10 73 -16 153t-6 155q0 213 42 423.5t134 417.5l-192 66q-92 -171 -141.5 -408t-49.5 -487z" />
<glyph unicode=")" horiz-adv-x="565" d="M97 -178l194 -64q95 233 143 469.5t48 477.5q0 74 -5 147t-15 152q-19 148 -59 290q-20 73 -43.5 139.5t-52.5 131.5l-210 -49q176 -354 176 -813q0 -50 -3 -108t-8 -112q-10 -107 -33 -223q-11 -56 -25 -112.5t-31 -111.5q-34 -113 -76 -214z" />
<glyph unicode="*" horiz-adv-x="725" d="M64 1082l49 -66l225 129v-258h82v258l209 -129l49 66l-227 129l244 143l-50 66l-225 -146v275h-82v-275l-225 129l-49 -63l243 -129z" />
<glyph unicode="+" horiz-adv-x="1032" d="M97 451h339v-451h160v451h340v145h-340v453h-160v-453h-339v-145z" />
<glyph unicode="," horiz-adv-x="420" d="M17 -322l96 -49l209 549l-176 64z" />
<glyph unicode="-" horiz-adv-x="500" d="M64 467h387v146h-387v-146z" />
<glyph unicode="." horiz-adv-x="420" d="M64 113q0 -63 41 -98.5t96 -35.5t96 36t41 98q0 59 -39 93t-94 34q-56 0 -98.5 -34t-42.5 -93z" />
<glyph unicode="/" horiz-adv-x="838" d="M-64 -193h177l790 1920h-178z" />
<glyph unicode="0" horiz-adv-x="838" d="M64 758q0 -229 27 -398t106.5 -273t222.5 -104q149 0 227.5 103t102.5 267.5t24 404.5l2 123q0 360 -81.5 538.5t-274.5 178.5q-123 0 -201 -83t-116.5 -269t-38.5 -488zM273 645q0 24 0.5 52.5t1.5 60.5q0 323 32.5 492.5t112.5 169.5q61 0 94 -72q18 -40 29.5 -94 t11.5 -118q0 -42 3 -118q7 -177 7 -260q0 -317 -31.5 -456.5t-113.5 -139.5q-63 0 -105 116t-42 367z" />
<glyph unicode="1" horiz-adv-x="838" d="M178 1403h144v-1403h211v1581h-355v-178z" />
<glyph unicode="2" horiz-adv-x="838" d="M64 0h694v178h-387q92 154 181.5 325t155.5 351t66 307q0 178 -83 283t-271 105q-75 0 -129.5 -19.5t-92.5 -55.5q-70 -67 -85.5 -166t-15.5 -276h210q0 186 21.5 262t91.5 76q72 0 103.5 -59t31.5 -150q0 -38 -6 -79q-11 -81 -55 -188q-25 -62 -46 -111t-54 -116 l-165 -331q-108 -214 -165 -336z" />
<glyph unicode="3" horiz-adv-x="838" d="M78 324q0 -357 342 -357q197 0 275.5 127.5t78.5 292.5q0 126 -21 207.5t-74 122.5t-146 41q73 9 120.5 42t76 115t28.5 230q0 387 -322 387q-62 0 -111.5 -11t-86.5 -30q-66 -32 -95.5 -122.5t-29.5 -272.5h194q0 87 18 147.5t47.5 91.5t61.5 31q47 0 81 -55.5 t34 -149.5q0 -112 -10.5 -169.5t-45 -89t-106.5 -31.5h-80v-176h80q88 0 133 -72.5t45 -235.5q0 -112 -45 -177.5t-106 -65.5q-53 0 -88 57t-35 170h-211l-1 -24z" />
<glyph unicode="4" horiz-adv-x="838" d="M49 420h418v-420h211v420h96v160h-96v952h-227l-402 -936v-176zM209 580l258 645v-645h-258z" />
<glyph unicode="5" horiz-adv-x="791" d="M80 49l82 -35q21 -8 34 -12.5t36 -9.5q38 -9 90 -9q90 0 167 30.5t139 96t96 171t34 252.5q0 450 -403 450l49 387h338v179h-500l-80 -758q22 12 63.5 22.5t65.5 10.5q87 -9 143 -39t85.5 -95.5t29.5 -173.5q0 -99 -29 -180.5t-82 -127.5t-116 -46q-87 0 -176 64z" />
<glyph unicode="6" horiz-adv-x="838" d="M97 500q0 -178 28.5 -291.5t103.5 -177.5t207 -64q103 0 172.5 46t109.5 157t40 297q0 162 -37 267.5t-97 154.5t-134 49q-100 0 -183 -84l322 662h-242l-80 -176q-75 -162 -121 -286q-41 -113 -62 -210q-10 -45 -16.5 -87.5t-6.5 -72.5q0 -23 -2 -91.5t-2 -92.5z M301 463q0 118 32 206.5t87 88.5q67 0 104 -90t37 -215q0 -124 -33.5 -215.5t-91.5 -91.5q-64 0 -99.5 95t-35.5 222z" />
<glyph unicode="7" horiz-adv-x="838" d="M64 1354h436l-420 -1354h211l467 1532h-694v-178z" />
<glyph unicode="8" horiz-adv-x="838" d="M80 467q0 -156 25.5 -261t101.5 -164t213 -59q175 0 256.5 123.5t81.5 360.5q0 108 -27 189.5t-71.5 128t-94.5 53.5q101 34 139 124.5t38 248.5q0 95 -25 164t-68 111q-82 79 -245 79q-310 0 -310 -322q0 -31 3 -49q0 -170 40 -250t138 -106q-87 -30 -128.5 -78.5 t-54 -118.5t-12.5 -174zM279 465q0 112 32 191.5t93 85.5q64 0 99.5 -87.5t35.5 -207.5q0 -114 -32 -199.5t-87 -85.5q-65 0 -103 92.5t-38 210.5zM301 1164q0 90 26.5 156.5t76.5 66.5q60 0 93.5 -66.5t33.5 -159.5q0 -96 -34 -168.5t-93 -72.5q-47 0 -75 74q-14 38 -21 79 t-7 91z" />
<glyph unicode="9" horiz-adv-x="838" d="M80 1016q0 -226 75 -330t185 -104q113 0 193 80l-340 -662h243q41 74 79.5 148.5t69.5 143.5q62 138 104.5 270.5t63.5 257t21 245.5q0 125 -24 219.5t-67 159.5q-80 121 -247 121q-125 0 -202 -50t-115.5 -172t-38.5 -327zM301 1084q0 122 32 212.5t87 90.5 q67 0 104 -92.5t37 -221.5q0 -79 -14.5 -152.5t-43.5 -118t-67 -44.5q-64 0 -99.5 97t-35.5 229z" />
<glyph unicode=":" horiz-adv-x="420" d="M80 113q0 -62 41.5 -98t95.5 -36q55 0 96.5 36t41.5 98q0 59 -39 93t-95 34q-55 0 -98 -34t-43 -93zM80 920q0 -62 42 -97.5t95 -35.5q56 0 97 35.5t41 97.5q0 59 -39 93t-95 34q-55 0 -98 -34t-43 -93z" />
<glyph unicode=";" horiz-adv-x="420" d="M17 -338l96 -49l209 549l-176 64zM64 920q0 -63 41 -98t96 -35q57 0 97 35.5t40 97.5q0 59 -39 93t-94 34q-56 0 -98.5 -34t-42.5 -93z" />
<glyph unicode="&#x3c;" horiz-adv-x="1032" d="M80 451l840 -468v146l-694 387l694 387v146l-840 -469v-129z" />
<glyph unicode="=" horiz-adv-x="1032" d="M80 258h840v146h-840v-146zM80 645h840v146h-840v-146z" />
<glyph unicode="&#x3e;" horiz-adv-x="1032" d="M64 -17l856 484v146l-856 483v-160l694 -403l-694 -387v-163z" />
<glyph unicode="?" horiz-adv-x="695" d="M64 1178h194q0 93 8 143t27 66t62 16q50 0 73 -51.5t23 -190.5v-79q0 -94 -12 -143t-56.5 -75t-140.5 -26v-467h194v324q44 0 77.5 15.5t57.5 43.5t38.5 62.5t22.5 78.5q13 82 13 217q0 149 -15 242.5t-82 160t-210 66.5q-145 0 -209.5 -92.5t-64.5 -310.5zM209 129 q0 -61 41.5 -97t95.5 -36q55 0 96.5 35.5t41.5 97.5q0 61 -39 94t-95 33t-98.5 -34.5t-42.5 -92.5z" />
<glyph unicode="@" horiz-adv-x="1645" d="M49 807q0 -201 66.5 -360t179 -264.5t255 -158.5t292.5 -53q142 0 273 45.5t239 134.5t178 220h-145q-67 -88 -150.5 -146t-177.5 -86t-192 -28q-133 0 -256 47t-220 135t-155 216.5t-58 281.5q0 74 16.5 141t47.5 134q59 125 153.5 210.5t210 130.5t232.5 45 q70 0 127.5 -10t115.5 -34q109 -43 189.5 -124t122.5 -187q21 -53 32 -108.5t11 -117.5q0 -68 -19 -132q-15 -52 -49 -115q-55 -104 -129.5 -161t-132.5 -57q-67 0 -67 69q0 21 10 58l225 678h-145l-33 -99q-72 148 -240 148q-111 0 -226.5 -76.5t-192.5 -221.5 q-39 -74 -60.5 -157.5t-21.5 -175.5q0 -102 40 -176t106.5 -112t145.5 -38q133 0 240 101q42 -111 174 -111q74 0 160 40.5t161 118t124 188.5q27 59 43 121.5t16 125.5l2 47q0 138 -61 257.5t-164 206.5t-230 135t-258 48q-160 0 -304.5 -53t-256.5 -153.5t-178 -247.5 t-66 -320zM527 629q0 67 22 145q29 134 87.5 213.5t121.5 110.5q33 16 60 23.5t53 7.5q71 0 105 -32t34 -116q0 -41 -9 -101t-26 -111t-43 -102q-51 -102 -124 -166.5t-146 -64.5q-135 15 -135 193z" />
<glyph unicode="A" horiz-adv-x="854" d="M0 0h209l49 307h307l48 -307h225l-338 1549h-162zM291 484l129 839l113 -839h-242z" />
<glyph unicode="B" horiz-adv-x="854" d="M129 0h275q99 0 163 22.5t104.5 70t59.5 122.5q13 47 20 90.5t7 98.5q0 100 -18 174.5t-71.5 127.5t-152.5 68q133 35 179.5 124t46.5 231l2 53q0 367 -389 367h-226v-1549zM322 178v517q118 0 172.5 -65t54.5 -210q0 -131 -42.5 -187.5t-139.5 -56.5zM322 854v516 q111 0 169 -67t58 -174q0 -275 -227 -275z" />
<glyph unicode="C" horiz-adv-x="758" d="M97 742q0 -218 35.5 -368.5t96 -238.5t140 -128t172.5 -40q85 0 184 33v193q-67 -31 -129 -31q-120 0 -204.5 133.5t-84.5 462.5q0 616 256 616q65 0 146 -34v192q-104 23 -182 23q-136 0 -231 -74t-147 -252.5t-52 -486.5z" />
<glyph unicode="D" horiz-adv-x="953" d="M113 0h225q140 0 232.5 28.5t155.5 109t95.5 240t32.5 413.5q0 221 -29 368t-88.5 231.5t-149 121.5t-216.5 37h-258v-1549zM322 178v1192l45 4q150 0 214 -147.5t64 -435.5q0 -48 -3.5 -128t-3.5 -112q0 -46 -9 -87t-27 -94q-28 -84 -96.5 -138t-183.5 -54z" />
<glyph unicode="E" horiz-adv-x="709" d="M113 0h565v193h-356v532h307v178h-307v451h356v195h-565v-1549z" />
<glyph unicode="F" horiz-adv-x="695" d="M113 0h225v709h307v178h-307v467h357v195h-582v-1549z" />
<glyph unicode="G" horiz-adv-x="936" d="M80 725q0 -182 24 -322t73 -238t121 -148t169 -50q404 0 404 566v291h-387v-179h178v-161q0 -103 -23.5 -180t-61.5 -116.5t-81 -39.5q-48 0 -91.5 50.5t-70.5 156.5t-27 258v387q0 126 25.5 212t66 124t87.5 38q57 0 108.5 -55.5t67.5 -140.5l192 80q-18 92 -75 165 t-139 114.5t-167 41.5q-105 0 -194 -65t-144 -207t-55 -354v-228z" />
<glyph unicode="H" horiz-adv-x="967" d="M113 0h209v774h307v-774h209v1549h-209v-596h-307v596h-209v-1549z" />
<glyph unicode="I" horiz-adv-x="451" d="M113 0h194v1549h-194v-1549z" />
<glyph unicode="J" horiz-adv-x="613" d="M0 0q131 -27 207 -27q130 0 203.5 84t73.5 298v1194h-209v-1227q0 -150 -117 -150q-68 0 -158 54v-226z" />
<glyph unicode="K" horiz-adv-x="871" d="M113 0h209v758l291 -758h241l-338 774l322 775h-225l-291 -775v775h-209v-1549z" />
<glyph unicode="L" horiz-adv-x="678" d="M113 0h565v178h-356v1371h-209v-1549z" />
<glyph unicode="M" horiz-adv-x="1145" d="M33 0h209l49 1065l209 -1065h145l193 1065l49 -1065h209l-143 1549h-195l-193 -1129l-227 1129h-176z" />
<glyph unicode="N" horiz-adv-x="967" d="M113 0h209v662l-47 549l387 -1211h176v1549h-209v-629l49 -549l-356 1178h-209v-1549z" />
<glyph unicode="O" horiz-adv-x="967" d="M80 725q0 -270 49.5 -439t143.5 -244t227 -75q206 0 288.5 203t82.5 572q0 412 -99 609.5t-305 197.5q-214 0 -300.5 -213.5t-86.5 -610.5zM291 774q0 175 14 302t53.5 202.5t108.5 75.5q66 0 109 -58.5t64 -185.5q10 -62 16 -148.5t6 -187.5q0 -321 -42 -474.5 t-136 -153.5q-193 0 -193 628z" />
<glyph unicode="P" horiz-adv-x="791" d="M129 0h209v695q49 -13 96 -13q91 0 171.5 45t133 150.5t52.5 267.5q0 404 -404 404h-258v-1549zM338 854v516q227 0 227 -258q-9 -105 -27 -156.5t-64 -76.5t-136 -25z" />
<glyph unicode="Q" horiz-adv-x="983" d="M80 713q0 -382 101 -562t272 -180q101 0 225 62l113 -162l145 96l-129 195q34 112 50 191q13 63 18 106.5t5 73.5q0 33 3.5 113.5t3.5 127.5l1 42l1 40q0 709 -405 709q-231 0 -317.5 -217t-86.5 -574v-61zM307 725q0 332 41 488.5t136 156.5q76 0 115 -78.5t51 -212.5 t12 -337q0 -204 -17 -355l-80 113l-129 -113l129 -194q-51 -23 -86 -23q-98 0 -135 141t-37 414z" />
<glyph unicode="R" horiz-adv-x="854" d="M113 0h209v791l291 -791h225l-289 758q98 26 153.5 129t55.5 258q0 147 -35 234.5t-117.5 128.5t-218.5 41h-274v-1549zM322 854v516l43 2q100 0 134 -56t34 -187q0 -93 -17 -150t-62 -86.5t-132 -38.5z" />
<glyph unicode="S" horiz-adv-x="725" d="M33 1194q0 -156 54.5 -251.5t165 -200.5t162.5 -181.5t52 -205.5q-8 -84 -58 -131.5t-122 -47.5q-108 0 -207 99v-226q126 -78 244 -78q105 0 190 58t133 154.5t48 203.5q0 71 -17.5 132.5t-49.5 115.5q-28 47 -74 102.5t-101 109.5q-115 110 -163 173t-48 158 q0 74 49 135t135 61q89 0 187 -67v209q-135 51 -238 51q-122 0 -199.5 -61.5t-110.5 -148.5q-16 -43 -24 -83t-8 -80z" />
<glyph unicode="T" horiz-adv-x="662" d="M-17 1370h243v-1370h210v1370h226v179h-679v-179z" />
<glyph unicode="U" horiz-adv-x="953" d="M129 371q0 -228 84.5 -324t270.5 -96q166 0 253 98.5t87 321.5v1178h-195v-1162q0 -241 -162 -241q-145 0 -145 225v1178h-193v-1178z" />
<glyph unicode="V" horiz-adv-x="791" d="M0 1549l307 -1549h160l324 1549h-211l-193 -1145l-161 1145h-226z" />
<glyph unicode="W" horiz-adv-x="1211" d="M-17 1549l275 -1549h178l160 1145l162 -1145h178l275 1549h-211l-146 -1145l-176 1145h-162l-161 -1162l-162 1162h-210z" />
<glyph unicode="X" horiz-adv-x="871" d="M33 0h242l145 500l16 96l15 -96l145 -500h228l-291 791l305 758h-225l-146 -484l-16 -112l-15 112l-145 484h-227l274 -758z" />
<glyph unicode="Y" horiz-adv-x="807" d="M0 1549l307 -904v-645h209v645l291 904h-227l-129 -484l-31 -241l-194 725h-226z" />
<glyph unicode="Z" horiz-adv-x="807" d="M17 0h725v178h-435l467 1371h-694v-179h420z" />
<glyph unicode="[" horiz-adv-x="613" d="M80 -226h453v146h-275v1500h275v145h-453v-1791z" />
<glyph unicode="\" horiz-adv-x="516" d="M-113 1710l564 -1710h178l-565 1710h-177z" />
<glyph unicode="]" horiz-adv-x="613" d="M80 -49v-144h469v1758h-469v-145h275v-1469h-275z" />
<glyph unicode="^" horiz-adv-x="1032" d="M80 709h162l274 645l275 -645h162l-373 856h-129z" />
<glyph unicode="_" horiz-adv-x="1032" d="M0 -209v-162h1032v162h-1032z" />
<glyph unicode="`" horiz-adv-x="580" d="M146 1452l209 -274l96 63l-176 308z" />
<glyph unicode="a" d="M62 487q0 -20 2 -36q0 -76 12 -144t32 -128q36 -106 86 -155t109 -49q57 0 112 47.5t85 123.5v-146h195v1032h-195v-129q-22 65 -75.5 106.5t-112.5 41.5q-104 0 -177 -127t-73 -393v-44zM258 500q0 193 25.5 282t103.5 89q76 0 102.5 -96t26.5 -259l2 -57 q0 -94 -19.5 -163.5t-50.5 -109.5t-61 -40q-85 0 -107 94.5t-22 259.5z" />
<glyph unicode="b" d="M80 0h211v146q9 -68 64 -117.5t120 -49.5q64 0 121 53t93 174.5t36 309.5q0 289 -66 412t-165 123q-48 0 -96 -24q-44 -21 -75.5 -54.5t-31.5 -52.5v774h-211v-1694zM275 500q0 193 25.5 282t103.5 89q75 0 102 -102t27 -269l2 -57q0 -132 -41 -214.5t-90 -82.5 q-85 0 -107 91.5t-22 262.5z" />
<glyph unicode="c" horiz-adv-x="565" d="M64 516q0 -154 34 -277t101.5 -192.5t163.5 -69.5q86 0 186 56v176q-62 -45 -117 -45q-72 0 -114.5 90t-42.5 262q0 185 44 267t111 82q58 0 119 -58v209q-96 31 -176 31q-88 0 -157 -47t-110.5 -166t-41.5 -318z" />
<glyph unicode="d" d="M62 487q0 -20 2 -36q0 -76 12 -144t32 -128q36 -106 86 -155t109 -49q57 0 112 47.5t85 123.5v-146h195v1694h-195v-791q-22 65 -75.5 106.5t-112.5 41.5q-104 0 -177 -127t-73 -393v-44zM258 500q0 193 25.5 282t103.5 89q74 0 93.5 -90.5t19.5 -264.5l2 -69 q0 -69 -8 -120.5t-27 -96.5q-35 -84 -80 -84q-85 0 -107 94.5t-22 259.5z" />
<glyph unicode="e" horiz-adv-x="742" d="M49 516q0 -267 86 -400t236 -133q83 0 144 27.5t104.5 106t58.5 221.5h-194q0 -176 -113 -176q-60 0 -94.5 80.5t-34.5 224.5h436l2 74q0 134 -19.5 228t-59.5 156.5t-97 92.5q-29 15 -61.5 23t-71.5 8q-322 0 -322 -533zM242 613q0 127 36.5 196.5t86.5 69.5 q48 0 83.5 -68.5t35.5 -197.5h-242z" />
<glyph unicode="f" horiz-adv-x="516" d="M33 887h96v-887h193v887h162v145h-162v258q0 216 90 216q39 0 88 -37v225l-48 5l-51 5l-40 2q-107 0 -169.5 -79.5t-62.5 -303.5v-291h-96v-145z" />
<glyph unicode="g" horiz-adv-x="791" d="M62 473q0 -20 2 -37q0 -76 12 -143.5t32 -127.5q36 -108 86.5 -156t108.5 -48q60 0 113.5 47t83.5 121v-291q0 -57 -35 -89t-82 -32q-52 0 -88.5 42.5t-36.5 127.5h-194q0 -85 24 -151t65 -108q77 -79 234 -79q104 0 167.5 30.5t102 126t38.5 277.5v1033h-195v-129 q-22 65 -75 106t-113 41q-104 0 -177 -126t-73 -392v-43zM258 484q0 192 25.5 281t103.5 89q75 0 94 -88q9 -45 14 -110.5t5 -155.5l2 -70q0 -89 -16.5 -157.5t-43 -106t-55.5 -37.5q-59 0 -87 50t-35 122t-7 183z" />
<glyph unicode="h" horiz-adv-x="791" d="M80 0h211v758q0 66 33 101.5t80 35.5q39 0 67.5 -27.5t28.5 -76.5v-791h209v807q0 128 -58.5 190t-144.5 62q-66 0 -126.5 -34.5t-88.5 -88.5v758h-211v-1694z" />
<glyph unicode="i" horiz-adv-x="371" d="M33 1354q0 -61 41 -96t96 -35q56 0 96.5 34t40.5 97q0 59 -39 93t-94 34t-98 -34t-43 -93zM64 0h211v1032h-211v-1032z" />
<glyph unicode="j" horiz-adv-x="371" d="M49 1354q0 -61 40.5 -96t97.5 -35q54 0 94.5 34.5t40.5 96.5q0 59 -38.5 93t-92.5 34q-55 0 -98.5 -34.5t-43.5 -92.5zM80 -404h195v1436h-195v-1436z" />
<glyph unicode="k" horiz-adv-x="807" d="M64 0h211v549l274 -549h225l-307 580l258 452h-209l-241 -452v1114h-211v-1694z" />
<glyph unicode="l" horiz-adv-x="371" d="M64 0h211v1694h-211v-1694z" />
<glyph unicode="m" horiz-adv-x="1211" d="M80 0h195v774q0 51 33 78t79 27q47 0 80 -23.5t33 -64.5v-791h195v774q0 51 33 78t79 27q47 0 80 -23.5t33 -64.5v-791h176v791q0 121 -60.5 188.5t-148.5 67.5q-67 0 -129 -41.5t-96 -118.5q0 35 -14.5 63t-41.5 52q-51 43 -116 43t-123.5 -40t-91.5 -118v145h-195 v-1032z" />
<glyph unicode="n" horiz-adv-x="791" d="M80 0h211v758q0 58 31.5 89.5t73.5 31.5q43 0 73.5 -31.5t30.5 -89.5v-758h209v791q0 131 -58 198.5t-145 67.5q-63 0 -122.5 -37t-92.5 -100v112h-211v-1032z" />
<glyph unicode="o" d="M64 516q0 -171 34 -289t107 -181t182 -63q175 0 256.5 135.5t81.5 397.5q0 181 -35.5 298t-111 176t-191.5 59q-101 0 -173 -50t-111 -168t-39 -315zM258 516q0 184 29.5 269.5t99.5 85.5q87 0 108 -84.5t21 -270.5q0 -180 -25.5 -267t-103.5 -87q-129 0 -129 354z" />
<glyph unicode="p" d="M80 -404h195v533q21 -60 74 -101t116 -41q67 0 126 53t96.5 175.5t37.5 317.5q0 184 -36.5 302.5t-96 173t-125.5 54.5q-62 0 -114.5 -43.5t-77.5 -116.5v129h-195v-1436zM258 516q0 193 25.5 282t103.5 89q66 0 97.5 -101t31.5 -253l4 -82q0 -138 -35 -213.5t-98 -75.5 q-129 0 -129 354z" />
<glyph unicode="q" d="M62 487q0 -20 2 -36q0 -76 12 -144t32 -128q36 -106 86 -155t109 -49q57 0 112 47.5t85 123.5v-550h195v1436h-195v-129q-22 65 -75.5 106.5t-112.5 41.5q-104 0 -177 -127t-73 -393v-44zM258 500q0 193 25.5 282t103.5 89q76 0 102.5 -96t26.5 -259q0 -370 -129 -370 q-85 0 -107 94.5t-22 259.5z" />
<glyph unicode="r" horiz-adv-x="549" d="M80 0h195v678q0 193 241 193v178q-80 0 -135.5 -34.5t-105.5 -111.5v129h-195v-1032z" />
<glyph unicode="s" horiz-adv-x="565" d="M33 774q0 -98 40 -157q21 -30 50.5 -59t70.5 -60q79 -59 117 -98.5t44 -108.5q0 -58 -34.5 -96.5t-90.5 -38.5q-80 0 -166 70v-177q80 -53 174 -53q78 0 145 37t108.5 108.5t41.5 165.5q0 98 -45 161.5t-138 132t-125 100.5t-32 90q0 39 37.5 67.5t95.5 28.5 q76 0 158 -49v178q-83 43 -175 43q-117 0 -196.5 -73.5t-79.5 -211.5z" />
<glyph unicode="t" horiz-adv-x="451" d="M17 854h96v-854h209v854h98v178h-98v275h-209v-275h-96v-178z" />
<glyph unicode="u" horiz-adv-x="791" d="M80 307q0 -129 46 -204t125.5 -105.5t184.5 -30.5q289 0 289 340v725h-209v-790q0 -46 -32 -72t-76 -26q-47 0 -82 33q-35 35 -35 98v757h-211v-725z" />
<glyph unicode="v" horiz-adv-x="725" d="M0 1032l291 -1032h129l275 1032h-195l-145 -757l-129 757h-226z" />
<glyph unicode="w" horiz-adv-x="1000" d="M-33 1032l275 -1032h129l80 467l33 307l32 -307l97 -467h129l241 1032h-192l-82 -483l-31 -242l-129 725h-145l-82 -483l-31 -242l-113 725h-211z" />
<glyph unicode="x" horiz-adv-x="807" d="M17 0h209l145 355l16 81l17 -81l145 -355h242l-291 549l242 483h-209l-97 -241l-32 -113l-146 354h-241l258 -483z" />
<glyph unicode="y" horiz-adv-x="758" d="M0 1032l275 -952l-162 -484h209l420 1436h-209l-162 -710l-145 710h-226z" />
<glyph unicode="z" horiz-adv-x="695" d="M17 0h628v178h-323l356 854h-614v-161h323z" />
<glyph unicode="{" horiz-adv-x="533" d="M0 629q100 -12 146.5 -58.5t46.5 -150.5v-371q0 -79 29.5 -132.5t80.5 -81.5t117 -28h113v113q-77 0 -119.5 31.5t-42.5 128.5v371q0 194 -225 227q108 12 166.5 70.5t58.5 154.5v387q0 76 34.5 111t127.5 35v113h-146q-82 0 -138 -61.5t-56 -147.5v-437 q0 -81 -45.5 -122.5t-147.5 -55.5v-96z" />
<glyph unicode="|" horiz-adv-x="516" d="M178 0h160v1694h-160v-1694z" />
<glyph unicode="}" horiz-adv-x="533" d="M17 -80v-129h80q258 0 258 273v340q0 87 16.5 127t52.5 57q33 14 109 25v112q-91 0 -134.5 40t-43.5 155v370q0 79 -30 138t-85.5 90t-126.5 31h-96v-129q86 0 123.5 -31.5t37.5 -114.5v-387q0 -68 19.5 -110.5t64.5 -66t125 -32.5q-85 -28 -124 -52q-42 -24 -63.5 -65 t-21.5 -110v-387q0 -144 -161 -144z" />
<glyph unicode="~" horiz-adv-x="1032" d="M97 436l65 -98l59 101q22 33 51.5 55t69.5 22q59 0 140.5 -48t132.5 -70.5t98 -22.5q134 0 223 221l-65 99q-43 -89 -79 -128.5t-79 -39.5q-53 0 -165.5 69.5t-205.5 69.5q-167 0 -245 -230z" />
<glyph unicode="&#xa1;" horiz-adv-x="516" d="M129 1016q0 -60 41 -98q43 -35 96 -35q56 0 97 35.5t41 97.5q0 61 -39 94t-94 33q-58 0 -100 -34.5t-42 -92.5zM162 -420h209v1178h-209v-1178z" />
<glyph unicode="&#xa2;" horiz-adv-x="838" d="M193 742q0 -103 8 -178.5t26 -131.5q35 -107 84 -145t125 -61v-129h97v129q41 0 59 4.5t53 27.5v178q-51 -36 -96 -36q-145 0 -145 374q0 126 22 199t57.5 103t77.5 30q45 0 84 -24v176q-31 16 -112 16v162h-97v-162q-113 -14 -178 -128.5t-65 -403.5z" />
<glyph unicode="&#xa3;" horiz-adv-x="838" d="M49 80l144 -63q36 61 82 61q29 0 90 -35q56 -32 111 -56q49 -20 120 -20q106 0 211 179l-162 63q-35 -76 -77 -76q-24 0 -79 34l-69 42q59 59 59 199q0 92 -28 172h194v82h-209l-45 116l-57 151q-12 35 -21.5 68t-18.5 71q-15 69 -15 124q0 95 47 145t141 50 q67 0 114.5 -53.5t47.5 -155.5l162 80q-19 94 -49 155t-100.5 98.5t-190.5 37.5q-94 0 -176 -43t-132.5 -131.5t-50.5 -213.5q0 -214 150 -499h-162v-82h195q30 -119 30 -187q0 -62 -30 -151q-18 8 -39 8q-35 0 -73.5 -21t-70 -60t-43.5 -89z" />
<glyph unicode="&#xa4;" horiz-adv-x="838" d="M-47 615q0 -185 96 -293l-82 -80l97 -113l82 80q120 -108 280 -108q81 0 151 27.5t118 80.5l79 -80l97 97l-80 81q31 37 53 86q11 25 20 51t15 58q12 60 12 121q0 168 -84 297l80 80l-113 112l-79 -80q-126 99 -265 99q-132 0 -284 -99l-82 80l-97 -112l82 -80 q-96 -117 -96 -305zM113 613q0 93 35 173.5t110 135.5q39 28 83 44.5t95 16.5q36 0 67.5 -9.5t63.5 -28.5q56 -32 94.5 -85t57.5 -116q9 -33 14 -65.5t5 -67.5q0 -96 -36 -180t-108 -136.5t-174 -52.5q-94 0 -164 52.5t-106.5 138t-36.5 180.5z" />
<glyph unicode="&#xa5;" horiz-adv-x="838" d="M17 1549l225 -629h-145v-113h194l47 -145h-241v-113h241v-549h211v549h242v113h-242l47 145h195v113h-162l195 629h-228l-160 -711l-194 711h-225z" />
<glyph unicode="&#xa6;" horiz-adv-x="2167" />
<glyph unicode="&#xa7;" horiz-adv-x="854" d="M80 629q0 -100 63 -167.5t190 -148t187 -137.5t60 -143q0 -34 -11 -60.5t-32 -48.5q-39 -39 -88 -39q-53 0 -90 48t-37 147h-225q0 -163 87.5 -267t251.5 -104q119 0 197.5 45.5t115 119.5t36.5 159q0 84 -34 161.5t-89 112.5q162 135 162 355q-10 123 -79 190.5 t-192.5 124.5t-177 100.5t-53.5 133.5q0 87 34.5 131.5t82.5 44.5q46 0 78 -41.5t32 -120.5h225q-18 110 -51.5 178t-105.5 107t-197 39q-92 0 -158.5 -47.5t-101.5 -125.5t-35 -159q0 -85 34.5 -156.5t98.5 -107.5q-178 -80 -178 -324zM277 686q0 100 94 185 q262 -112 262 -248q0 -88 -117 -187q-239 87 -239 250z" />
<glyph unicode="&#xa8;" horiz-adv-x="580" d="M17 1354q0 -55 33 -88q18 -16 37 -23.5t42 -7.5q47 0 80 31t33 88q0 52 -33.5 80.5t-79.5 28.5q-45 0 -78.5 -29t-33.5 -80zM355 1354q0 -55 33 -88q18 -16 37 -23.5t42 -7.5q47 0 80 31t33 88q0 52 -33.5 80.5t-79.5 28.5q-45 0 -78.5 -29t-33.5 -80z" />
<glyph unicode="&#xa9;" horiz-adv-x="1645" d="M17 758q0 -88 17 -165t52 -158q63 -145 170.5 -250.5t245 -161.5t289.5 -56q195 0 370.5 90.5t285.5 263.5q56 88 87 190t31 214q0 183 -66.5 335t-181 261.5t-260.5 168.5t-299 59q-86 0 -162 -19.5t-151 -58.5q-139 -70 -234.5 -185.5t-144.5 -253t-49 -274.5zM129 758 q0 77 14.5 142.5t42.5 133.5q50 120 134.5 203.5t197.5 130.5q59 24 119 38t121 14q172 0 331 -75.5t261 -232.5t102 -387q0 -147 -54 -267t-148 -204.5t-213.5 -129t-245.5 -44.5q-155 0 -278 53.5t-206.5 149t-126.5 217.5q-23 65 -37 130t-14 128zM404 742q0 -62 15 -117 t47 -106q63 -99 161 -155.5t197 -56.5q91 0 173 40.5t131.5 110.5t49.5 155h-113q0 -94 -68.5 -150.5t-164.5 -56.5q-70 0 -133 34t-110 111q-22 36 -36 84t-20 107l-1 21l-1 20q0 161 85.5 245t202.5 84q63 0 116 -23t87.5 -66t42.5 -103h113q-29 130 -112 210.5t-259 80.5 q-130 0 -222 -58.5t-136.5 -164.5t-44.5 -246z" />
<glyph unicode="&#xaa;" horiz-adv-x="467" d="M0 1241q0 -161 47 -236t113 -75q42 0 79 25q19 14 31.5 28t20.5 33v-63h129v628h-129v-65q-15 31 -50.5 53.5t-74.5 22.5q-69 0 -117.5 -82.5t-48.5 -268.5zM33 758h387v113h-387v-113zM129 1241q0 103 18.5 172.5t61.5 69.5q98 0 98 -242q0 -103 -17.5 -156t-63.5 -53 t-71.5 57t-25.5 152z" />
<glyph unicode="&#xab;" horiz-adv-x="725" d="M33 533l258 -453l96 49l-209 404l226 387l-97 63zM275 533l258 -453l96 49l-209 404l225 387l-96 63z" />
<glyph unicode="&#xac;" horiz-adv-x="1032" d="M80 645h694v-403h162v565h-856v-162z" />
<glyph unicode="&#xad;" horiz-adv-x="2167" />
<glyph unicode="&#xae;" horiz-adv-x="1645" d="M17 774q0 -85 18 -165.5t53 -157.5q66 -146 177.5 -251.5t252 -161t289.5 -55.5q146 0 285.5 51t252 150t179.5 240q35 74 54.5 153t19.5 165q0 180 -68 331.5t-185.5 262t-266.5 170t-304 59.5q-84 0 -163.5 -20.5t-153.5 -57.5q-142 -71 -239.5 -185.5t-149 -253.5 t-51.5 -274zM146 774q0 75 14.5 143t41.5 133q49 120 135.5 204.5t196.5 129.5q59 24 119 38t121 14q171 0 331 -76.5t262 -233.5t102 -384q0 -146 -53.5 -266t-149.5 -207q-91 -82 -212 -127t-247 -45q-155 0 -279 54t-205.5 148.5t-126.5 215.5q-24 67 -37 130t-13 129z M484 322h145v403h162l258 -403h145l-274 403q142 0 216.5 68.5t74.5 189.5q0 124 -87.5 183t-220.5 59h-419v-903zM629 824v305h291q79 0 121.5 -40t42.5 -100q0 -64 -45.5 -114.5t-118.5 -50.5h-291z" />
<glyph unicode="&#xaf;" horiz-adv-x="2167" />
<glyph unicode="&#xb0;" horiz-adv-x="2167" />
<glyph unicode="&#xb1;" horiz-adv-x="1032" />
<glyph unicode="&#xb2;" horiz-adv-x="500" />
<glyph unicode="&#xb3;" horiz-adv-x="500" />
<glyph unicode="&#xb4;" horiz-adv-x="580" d="M146 1211l96 -50l209 259l-144 96z" />
<glyph unicode="&#xb5;" horiz-adv-x="791" />
<glyph unicode="&#xb6;" horiz-adv-x="903" d="M17 1159q0 -97 34 -183t104 -146t167 -72v-984h178v1646h145v-1646h179v1775h-486q-102 0 -175 -55t-109.5 -144.5t-36.5 -190.5z" />
<glyph unicode="&#xb7;" horiz-adv-x="420" d="M33 774q0 -61 14.5 -111.5t45.5 -98.5q57 -87 145.5 -132t187.5 -45t186.5 44.5t141 133t53.5 209.5q0 124 -55 213.5t-145.5 135t-190.5 45.5q-99 0 -187 -44t-142 -134t-54 -216z" />
<glyph unicode="&#xb8;" horiz-adv-x="580" d="M146 -387l80 -64l178 273l-129 81z" />
<glyph unicode="&#xb9;" horiz-adv-x="500" />
<glyph unicode="&#xba;" horiz-adv-x="467" d="M33 1241q0 -305 225 -305q98 0 153.5 83t55.5 239q0 323 -225 323q-99 0 -154 -86.5t-55 -253.5zM49 758h387v113h-387v-113zM162 1241q0 242 80 242q96 0 96 -242q0 -52 -4 -91t-13 -66q-17 -52 -63 -52q-96 0 -96 209z" />
<glyph unicode="&#xbb;" horiz-adv-x="725" d="M64 920l243 -387l-227 -404l113 -65l243 469l-274 450zM307 920l242 -387l-227 -404l114 -65l242 469l-274 450z" />
<glyph unicode="&#xbc;" horiz-adv-x="1258" />
<glyph unicode="&#xbd;" horiz-adv-x="1258" />
<glyph unicode="&#xbe;" horiz-adv-x="1258" />
<glyph unicode="&#xbf;" horiz-adv-x="695" d="M64 17q0 -75 11 -140.5t28 -121.5q30 -97 101 -144t200 -47q127 0 185 83t58 248v32v22q-2 13 -2 18h-194l4 -55q0 -82 -30 -129t-68 -47q-31 0 -55 31q-12 17 -19.5 38.5t-7.5 48.5l-4 165q0 74 8 129t22 86q30 61 113 61q34 0 53 -4v467h-192v-322q-82 0 -127.5 -44 t-64.5 -134t-19 -241zM242 1032q0 -62 41.5 -97.5t95.5 -35.5q55 0 96 35.5t41 97.5q0 61 -39 94t-94 33q-56 0 -98.5 -34.5t-42.5 -92.5z" />
<glyph unicode="&#xc0;" horiz-adv-x="854" d="M0 0h209l49 307h307l48 -307h225l-338 1549h-162zM275 1952l209 -274l96 63l-176 307zM291 484l129 839l113 -839h-242z" />
<glyph unicode="&#xc1;" horiz-adv-x="854" d="M0 0h209l49 307h307l48 -307h225l-338 1549h-162zM291 484l129 839l113 -839h-242zM387 1727l97 -49l211 258l-146 96z" />
<glyph unicode="&#xc2;" horiz-adv-x="854" d="M0 0h209l49 307h307l48 -307h225l-338 1549h-162zM193 1757l98 -79l145 192l177 -176l82 80l-259 274zM291 484l129 839l113 -839h-242z" />
<glyph unicode="&#xc3;" horiz-adv-x="854" d="M0 0h209l49 307h307l48 -307h225l-338 1549h-162zM178 1727h129q6 71 41 71q16 0 64 -24l73 -36q12 -5 28.5 -8t35.5 -3q80 0 113 52.5t33 156.5h-115q0 -68 -47 -68q-18 0 -33 7l-59 31l-69 34q-26 12 -50 12q-60 0 -102 -65t-42 -160zM291 484l129 839l113 -839h-242z " />
<glyph unicode="&#xc4;" horiz-adv-x="854" d="M0 0h209l49 307h307l48 -307h225l-338 1549h-162zM162 1839q0 -55 34 -87.5t79 -32.5q47 0 79.5 31.5t32.5 88.5q0 52 -33 80.5t-79 28.5q-45 0 -79 -29t-34 -80zM291 484l129 839l113 -839h-242zM500 1839q0 -55 33 -88q35 -32 80 -32q24 0 42 7t37 25q33 32 33 88 q0 51 -33.5 80t-78.5 29t-79 -29t-34 -80z" />
<glyph unicode="&#xc5;" horiz-adv-x="854" d="M0 0h209l49 307h307l48 -307h225l-338 1549h-162zM291 484l129 839l113 -839h-242zM291 1856q0 -74 50.5 -116t119.5 -42q67 0 117.5 42t50.5 116q0 84 -50.5 129t-119.5 45q-68 0 -118 -45.5t-50 -128.5zM387 1870q0 29 22 45.5t52 16.5t51 -16.5t21 -45.5 q0 -39 -21.5 -61.5t-50.5 -22.5t-51.5 23.5t-22.5 60.5z" />
<glyph unicode="&#xc6;" horiz-adv-x="1161" d="M0 0h209l49 307h322l65 -307h516l-32 178h-322l-112 531h305l-33 162h-305l-113 516h338l-33 178h-532zM291 467l129 823l47 -387l82 -436h-258z" />
<glyph unicode="&#xc7;" horiz-adv-x="758" d="M97 742q0 -218 35.5 -368.5t96 -238.5t140 -128t172.5 -40q85 0 184 33v193q-67 -31 -129 -31q-120 0 -204.5 133.5t-84.5 462.5q0 616 256 616q65 0 146 -34v192q-104 23 -182 23q-136 0 -231 -74t-147 -252.5t-52 -486.5zM242 -387l80 -64l178 273l-129 81z" />
<glyph unicode="&#xc8;" horiz-adv-x="709" d="M113 0h565v193h-356v532h307v178h-307v451h356v195h-565v-1549zM226 1936l210 -275l97 66l-178 305z" />
<glyph unicode="&#xc9;" horiz-adv-x="709" d="M113 0h565v193h-356v532h307v178h-307v451h356v195h-565v-1549zM338 1710l98 -49l209 258l-145 96z" />
<glyph unicode="&#xca;" horiz-adv-x="709" d="M113 0h565v193h-356v532h307v178h-307v451h356v195h-565v-1549zM162 1741l96 -80l146 195l176 -178l82 79l-258 275z" />
<glyph unicode="&#xcb;" horiz-adv-x="709" d="M113 0h565v193h-356v532h307v178h-307v451h356v195h-565v-1549zM113 1790q0 -55 34.5 -88t78.5 -33t79 32q33 33 33 89q0 51 -33.5 80t-78.5 29t-79 -29t-34 -80zM451 1790q0 -55 34.5 -88t79.5 -33q44 0 78.5 32t34.5 89q0 51 -33.5 80t-79.5 29t-80 -28t-34 -81z" />
<glyph unicode="&#xcc;" horiz-adv-x="451" d="M80 1952l211 -274l96 63l-178 307zM113 0h194v1549h-194v-1549z" />
<glyph unicode="&#xcd;" horiz-adv-x="451" d="M113 0h194v1549h-194v-1549zM162 1727l96 -49l209 258l-145 96z" />
<glyph unicode="&#xce;" horiz-adv-x="451" d="M0 1774l97 -80l145 192l178 -176l80 80l-258 275zM113 0h194v1549h-194v-1549z" />
<glyph unicode="&#xcf;" horiz-adv-x="451" d="M-33 1823q0 -56 34.5 -88.5t78.5 -32.5t78.5 32t34.5 89q0 51 -33.5 80t-79.5 29q-45 0 -79 -28.5t-34 -80.5zM113 0h194v1549h-194v-1549zM307 1823q0 -56 34.5 -88.5t78.5 -32.5t78.5 32t34.5 89q0 51 -33.5 80t-79.5 29q-45 0 -79 -29t-34 -80z" />
<glyph unicode="&#xd0;" horiz-adv-x="953" />
<glyph unicode="&#xd1;" horiz-adv-x="967" d="M113 0h209v662l-47 549l387 -1211h176v1549h-209v-629l49 -549l-356 1178h-209v-1549zM226 1757h129q8 72 41 72q16 0 61 -24l74 -36q29 -12 65 -12q80 0 113 53.5t33 157.5h-113q-6 -67 -47 -67q-16 0 -39 9l-59 31q-17 9 -31.5 16.5t-32.5 15.5q-26 12 -49 12 q-59 0 -102 -66t-43 -162z" />
<glyph unicode="&#xd2;" horiz-adv-x="967" d="M80 725q0 -270 49.5 -439t143.5 -244t227 -75q206 0 288.5 203t82.5 572q0 412 -99 609.5t-305 197.5q-214 0 -300.5 -213.5t-86.5 -610.5zM291 774q0 175 14 302t53.5 202.5t108.5 75.5q66 0 109 -58.5t64 -185.5q10 -62 16 -148.5t6 -187.5q0 -321 -42 -474.5 t-136 -153.5q-193 0 -193 628zM338 1919l211 -274l96 65l-178 305z" />
<glyph unicode="&#xd3;" horiz-adv-x="967" d="M80 725q0 -270 49.5 -439t143.5 -244t227 -75q206 0 288.5 203t82.5 572q0 412 -99 609.5t-305 197.5q-214 0 -300.5 -213.5t-86.5 -610.5zM291 774q0 175 14 302t53.5 202.5t108.5 75.5q66 0 109 -58.5t64 -185.5q10 -62 16 -148.5t6 -187.5q0 -321 -42 -474.5 t-136 -153.5q-193 0 -193 628zM420 1710l96 -49l209 258l-145 96z" />
<glyph unicode="&#xd4;" horiz-adv-x="967" d="M80 725q0 -270 49.5 -439t143.5 -244t227 -75q206 0 288.5 203t82.5 572q0 412 -99 609.5t-305 197.5q-214 0 -300.5 -213.5t-86.5 -610.5zM291 774q0 175 14 302t53.5 202.5t108.5 75.5q66 0 109 -58.5t64 -185.5q10 -62 16 -148.5t6 -187.5q0 -321 -42 -474.5 t-136 -153.5q-193 0 -193 628zM291 1710l96 -49l209 258l-145 96zM549 1710l96 -49l209 258l-145 96z" />
<glyph unicode="&#xd5;" horiz-adv-x="967" d="M80 725q0 -270 49.5 -439t143.5 -244t227 -75q206 0 288.5 203t82.5 572q0 412 -99 609.5t-305 197.5q-214 0 -300.5 -213.5t-86.5 -610.5zM291 774q0 175 14 302t53.5 202.5t108.5 75.5q66 0 109 -58.5t64 -185.5q10 -62 16 -148.5t6 -187.5q0 -321 -42 -474.5 t-136 -153.5q-193 0 -193 628zM291 1710l96 -49l209 258l-145 96zM549 1710l96 -49l209 258l-145 96z" />
<glyph unicode="&#xd6;" horiz-adv-x="967" d="M80 725q0 -270 49.5 -439t143.5 -244t227 -75q206 0 288.5 203t82.5 572q0 412 -99 609.5t-305 197.5q-214 0 -300.5 -213.5t-86.5 -610.5zM209 1856q0 -56 34.5 -88.5t80.5 -32.5t78 32q34 31 34 89q0 50 -32.5 79t-79.5 29q-48 0 -81.5 -29t-33.5 -79zM291 774 q0 175 14 302t53.5 202.5t108.5 75.5q66 0 109 -58.5t64 -185.5q10 -62 16 -148.5t6 -187.5q0 -321 -42 -474.5t-136 -153.5q-193 0 -193 628zM549 1856q0 -56 34 -88.5t79 -32.5q24 0 42 7t37 25q33 32 33 89q0 50 -32 79t-80 29q-47 0 -80 -29t-33 -79z" />
<glyph unicode="&#xd7;" horiz-adv-x="2167" />
<glyph unicode="&#xd8;" horiz-adv-x="967" d="M64 -17l82 -47l63 144q43 -52 132.5 -82.5t158.5 -30.5q46 4 80.5 13t70.5 28q68 33 117.5 106.5t81.5 205.5q16 68 26.5 151.5t10.5 173.5q0 506 -80 725l80 179l-80 49l-65 -146q-21 44 -73 73.5t-110 42.5t-108 13q-42 0 -78.5 -12t-73.5 -36q-63 -40 -111 -125 t-75 -213q-15 -77 -24 -150t-9 -158q0 -514 82 -694zM299 799q0 296 42 433.5t126 137.5q47 0 72 -14.5t41 -41.5l49 -103l-322 -711q0 49 -4 149t-4 150zM322 338l340 727l4 -231q0 -330 -42 -501t-140 -171q-51 0 -83 44t-79 132z" />
<glyph unicode="&#xd9;" horiz-adv-x="953" d="M129 371q0 -228 84.5 -324t270.5 -96q166 0 253 98.5t87 321.5v1178h-195v-1162q0 -241 -162 -241q-145 0 -145 225v1178h-193v-1178zM322 1936l211 -275l96 66l-178 305z" />
<glyph unicode="&#xda;" horiz-adv-x="953" d="M129 371q0 -228 84.5 -324t270.5 -96q166 0 253 98.5t87 321.5v1178h-195v-1162q0 -241 -162 -241q-145 0 -145 225v1178h-193v-1178zM404 1710l96 -49l209 258l-144 96z" />
<glyph unicode="&#xdb;" horiz-adv-x="953" d="M129 371q0 -228 84.5 -324t270.5 -96q166 0 253 98.5t87 321.5v1178h-195v-1162q0 -241 -162 -241q-145 0 -145 225v1178h-193v-1178zM291 1710l96 -49l209 258l-145 96zM549 1710l96 -49l209 258l-145 96z" />
<glyph unicode="&#xdc;" horiz-adv-x="953" d="M129 371q0 -228 84.5 -324t270.5 -96q166 0 253 98.5t87 321.5v1178h-195v-1162q0 -241 -162 -241q-145 0 -145 225v1178h-193v-1178zM193 1839q0 -55 34 -87.5t80 -32.5q24 0 42 7t37 25q34 31 34 88q0 51 -33.5 80t-79.5 29t-80 -28t-34 -81zM533 1839q0 -55 33 -88 q35 -32 79 -32q48 0 80.5 32t32.5 88q0 51 -33.5 80t-79.5 29q-44 0 -78 -29t-34 -80z" />
<glyph unicode="&#xdd;" horiz-adv-x="807" />
<glyph unicode="&#xde;" horiz-adv-x="807" />
<glyph unicode="&#xdf;" horiz-adv-x="871" d="M33 871h96v-871h193v1370q0 77 36.5 123.5t84.5 46.5q47 0 81 -44q18 -22 29.5 -54.5t11.5 -71.5q3 -18 3 -49q0 -107 -44 -149.5t-137 -42.5v-162q42 0 74.5 -14.5t56.5 -40.5q45 -47 61.5 -133.5t16.5 -229.5q0 -49 -1.5 -98t-2.5 -103q0 -32 -5 -56t-15 -47 q-17 -40 -54.5 -57.5t-113.5 -25.5v-162l69 -2q113 0 181 36t103.5 134t35.5 273l-1 37l-1 38q0 213 -18 315t-56.5 141.5t-120.5 76.5q76 10 121 78q21 32 32 77t11 99v23q0 12 -2 28q0 68 -13 124.5t-36 99.5q-42 78 -108 105t-165 27q-166 0 -236.5 -80t-70.5 -194v-420 h-96v-145z" />
<glyph unicode="&#xe0;" d="M62 487q0 -20 2 -36q0 -76 12 -144t32 -128q36 -106 86 -155t109 -49q57 0 112 47.5t85 123.5v-146h195v1032h-195v-129q-22 65 -75.5 106.5t-112.5 41.5q-104 0 -177 -127t-73 -393v-44zM258 500q0 193 25.5 282t103.5 89q76 0 102.5 -96t26.5 -259l2 -57 q0 -94 -19.5 -163.5t-50.5 -109.5t-61 -40q-85 0 -107 94.5t-22 259.5zM258 1436l209 -275l98 64l-178 307z" />
<glyph unicode="&#xe1;" d="M62 487q0 -20 2 -36q0 -76 12 -144t32 -128q36 -106 86 -155t109 -49q57 0 112 47.5t85 123.5v-146h195v1032h-195v-129q-22 65 -75.5 106.5t-112.5 41.5q-104 0 -177 -127t-73 -393v-44zM258 500q0 193 25.5 282t103.5 89q76 0 102.5 -96t26.5 -259l2 -57 q0 -94 -19.5 -163.5t-50.5 -109.5t-61 -40q-85 0 -107 94.5t-22 259.5zM322 1211l98 -50l209 259l-145 96z" />
<glyph unicode="&#xe2;" d="M62 487q0 -20 2 -36q0 -76 12 -144t32 -128q36 -106 86 -155t109 -49q57 0 112 47.5t85 123.5v-146h195v1032h-195v-129q-22 65 -75.5 106.5t-112.5 41.5q-104 0 -177 -127t-73 -393v-44zM178 1274l97 -80l145 193l176 -176l82 79l-258 275zM258 500q0 193 25.5 282 t103.5 89q76 0 102.5 -96t26.5 -259l2 -57q0 -94 -19.5 -163.5t-50.5 -109.5t-61 -40q-85 0 -107 94.5t-22 259.5z" />
<glyph unicode="&#xe3;" d="M62 487q0 -20 2 -36q0 -76 12 -144t32 -128q36 -106 86 -155t109 -49q57 0 112 47.5t85 123.5v-146h195v1032h-195v-129q-22 65 -75.5 106.5t-112.5 41.5q-104 0 -177 -127t-73 -393v-44zM162 1241h129q8 72 41 72q17 0 62 -24l73 -36q29 -12 66 -12q79 0 112 53.5 t33 157.5h-113q0 -67 -47 -67q-15 0 -38 9l-60 31q-17 9 -31.5 16.5t-32.5 15.5q-26 12 -49 12q-39 0 -73 -31t-53 -83.5t-19 -113.5zM258 500q0 193 25.5 282t103.5 89q76 0 102.5 -96t26.5 -259l2 -57q0 -94 -19.5 -163.5t-50.5 -109.5t-61 -40q-85 0 -107 94.5t-22 259.5 z" />
<glyph unicode="&#xe4;" d="M62 487q0 -20 2 -36q0 -76 12 -144t32 -128q36 -106 86 -155t109 -49q57 0 112 47.5t85 123.5v-146h195v1032h-195v-129q-22 65 -75.5 106.5t-112.5 41.5q-104 0 -177 -127t-73 -393v-44zM146 1340q0 -56 34.5 -88.5t77.5 -32.5q47 0 80 32t33 89q0 50 -32.5 79t-80.5 29 q-46 0 -79 -29t-33 -79zM258 500q0 193 25.5 282t103.5 89q76 0 102.5 -96t26.5 -259l2 -57q0 -94 -19.5 -163.5t-50.5 -109.5t-61 -40q-85 0 -107 94.5t-22 259.5zM484 1340q0 -56 33 -89q35 -32 79 -32q47 0 80 32t33 89q0 50 -32.5 79t-80.5 29q-47 0 -79.5 -29 t-32.5 -79z" />
<glyph unicode="&#xe5;" d="M62 487q0 -20 2 -36q0 -76 12 -144t32 -128q36 -106 86 -155t109 -49q57 0 112 47.5t85 123.5v-146h195v1032h-195v-129q-22 65 -75.5 106.5t-112.5 41.5q-104 0 -177 -127t-73 -393v-44zM242 1340q0 -75 50 -116.5t120 -41.5q67 0 117.5 42t50.5 116q0 84 -50.5 129 t-119.5 45q-68 0 -118 -45t-50 -129zM258 500q0 193 25.5 282t103.5 89q76 0 102.5 -96t26.5 -259l2 -57q0 -94 -19.5 -163.5t-50.5 -109.5t-61 -40q-85 0 -107 94.5t-22 259.5zM338 1354q0 29 21 45t53 16q28 0 50 -16t22 -45q0 -40 -22 -62t-50 -22q-29 0 -51.5 23.5 t-22.5 60.5z" />
<glyph unicode="&#xe6;" horiz-adv-x="1145" d="M64 275q0 -68 21.5 -121.5t61.5 -94.5q76 -78 177 -78q72 0 133.5 42t91.5 123q24 -79 92.5 -124t153.5 -45q78 0 146.5 40.5t111.5 127t43 210.5h-193q3 -16 5 -31t2 -33q0 -64 -24.5 -104.5t-78.5 -40.5q-53 0 -81 40.5t-40.5 107t-23.5 190.5h450l2 65 q0 263 -94.5 392.5t-222.5 129.5q-74 0 -133.5 -41t-83.5 -110q-21 66 -98.5 107.5t-169.5 41.5q-119 0 -199 -69v-193q94 74 203 74q77 0 125.5 -47.5t48.5 -149.5q0 -30 -6 -71q-74 63 -164 63q-68 0 -126 -40t-94 -130t-36 -231zM258 338q0 93 35.5 144t85.5 51 q49 0 85 -50.5t36 -144.5q0 -97 -35.5 -151t-85.5 -54q-47 0 -84 54t-37 151zM662 629q0 83 18.5 143t49.5 91.5t65 31.5q32 0 60.5 -29.5t46.5 -90.5t18 -146h-258z" />
<glyph unicode="&#xe7;" horiz-adv-x="565" d="M64 516q0 -154 34 -277t101.5 -192.5t163.5 -69.5q86 0 186 56v176q-62 -45 -117 -45q-72 0 -114.5 90t-42.5 262q0 185 44 267t111 82q58 0 119 -58v209q-96 31 -176 31q-88 0 -157 -47t-110.5 -166t-41.5 -318zM146 -387l80 -64l178 273l-129 81z" />
<glyph unicode="&#xe8;" horiz-adv-x="742" d="M49 516q0 -267 86 -400t236 -133q83 0 144 27.5t104.5 106t58.5 221.5h-194q0 -176 -113 -176q-60 0 -94.5 80.5t-34.5 224.5h436l2 74q0 134 -19.5 228t-59.5 156.5t-97 92.5q-29 15 -61.5 23t-71.5 8q-322 0 -322 -533zM226 1452l210 -274l97 63l-178 308zM242 613 q0 127 36.5 196.5t86.5 69.5q48 0 83.5 -68.5t35.5 -197.5h-242z" />
<glyph unicode="&#xe9;" horiz-adv-x="742" d="M49 516q0 -267 86 -400t236 -133q83 0 144 27.5t104.5 106t58.5 221.5h-194q0 -176 -113 -176q-60 0 -94.5 80.5t-34.5 224.5h436l2 74q0 134 -19.5 228t-59.5 156.5t-97 92.5q-29 15 -61.5 23t-71.5 8q-322 0 -322 -533zM242 613q0 127 36.5 196.5t86.5 69.5 q48 0 83.5 -68.5t35.5 -197.5h-242zM291 1211l96 -50l209 259l-145 96z" />
<glyph unicode="&#xea;" horiz-adv-x="742" d="M49 516q0 -267 86 -400t236 -133q83 0 144 27.5t104.5 106t58.5 221.5h-194q0 -176 -113 -176q-60 0 -94.5 80.5t-34.5 224.5h436l2 74q0 134 -19.5 228t-59.5 156.5t-97 92.5q-29 15 -61.5 23t-71.5 8q-322 0 -322 -533zM129 1274l97 -80l145 193l178 -176l80 79 l-258 275zM242 613q0 127 36.5 196.5t86.5 69.5q48 0 83.5 -68.5t35.5 -197.5h-242z" />
<glyph unicode="&#xeb;" horiz-adv-x="742" d="M49 516q0 -267 86 -400t236 -133q83 0 144 27.5t104.5 106t58.5 221.5h-194q0 -176 -113 -176q-60 0 -94.5 80.5t-34.5 224.5h436l2 74q0 134 -19.5 228t-59.5 156.5t-97 92.5q-29 15 -61.5 23t-71.5 8q-322 0 -322 -533zM80 1354q0 -55 34 -88q36 -31 81 -31q46 0 78 31 q34 30 34 88q0 52 -33.5 80.5t-78.5 28.5q-47 0 -81 -29t-34 -80zM242 613q0 127 36.5 196.5t86.5 69.5q48 0 83.5 -68.5t35.5 -197.5h-242zM420 1354q0 -55 34 -88q34 -31 79 -31t78.5 30.5t33.5 88.5q0 52 -33 80.5t-79 28.5q-45 0 -79 -29t-34 -80z" />
<glyph unicode="&#xec;" horiz-adv-x="371" d="M33 1436l209 -275l96 64l-176 307zM80 0h195v1049h-195v-1049z" />
<glyph unicode="&#xed;" horiz-adv-x="371" d="M80 0h195v1049h-195v-1049zM129 1225l97 -47l210 258l-145 96z" />
<glyph unicode="&#xee;" horiz-adv-x="371" d="M-49 1258l98 -80l144 192l178 -176l80 80l-258 275zM80 0h195v1049h-195v-1049z" />
<glyph unicode="&#xef;" horiz-adv-x="371" d="M-80 1354q0 -56 33.5 -87.5t79.5 -31.5q45 0 79 31.5t34 87.5q0 51 -33.5 80t-79.5 29t-79.5 -28t-33.5 -81zM80 0h195v1049h-195v-1049zM258 1354q0 -55 34 -88q18 -16 37 -23.5t42 -7.5q47 0 80 31.5t33 87.5q0 51 -33.5 80t-79.5 29q-44 0 -78.5 -29t-34.5 -80z" />
<glyph unicode="&#xf0;" />
<glyph unicode="&#xf1;" horiz-adv-x="791" d="M80 0h211v758q0 58 31.5 89.5t73.5 31.5q43 0 73.5 -31.5t30.5 -89.5v-758h209v791q0 131 -58 198.5t-145 67.5q-63 0 -122.5 -37t-92.5 -100v112h-211v-1032zM113 1258h129q9 71 41 71q16 0 63 -24l74 -36q12 -5 28.5 -8t35.5 -3q80 0 112.5 53.5t32.5 157.5h-113 q-8 -68 -49 -68q-16 0 -35 8l-57 29l-67 34q-28 11 -50 11q-40 0 -73 -29q-16 -13 -29 -33.5t-24 -47.5q-19 -50 -19 -115z" />
<glyph unicode="&#xf2;" d="M64 516q0 -171 34 -289t107 -181t182 -63q175 0 256.5 135.5t81.5 397.5q0 181 -35.5 298t-111 176t-191.5 59q-101 0 -173 -50t-111 -168t-39 -315zM209 1436l211 -275l96 64l-178 307zM258 516q0 184 29.5 269.5t99.5 85.5q87 0 108 -84.5t21 -270.5q0 -180 -25.5 -267 t-103.5 -87q-129 0 -129 354z" />
<glyph unicode="&#xf3;" d="M64 516q0 -171 34 -289t107 -181t182 -63q175 0 256.5 135.5t81.5 397.5q0 181 -35.5 298t-111 176t-191.5 59q-101 0 -173 -50t-111 -168t-39 -315zM258 516q0 184 29.5 269.5t99.5 85.5q87 0 108 -84.5t21 -270.5q0 -180 -25.5 -267t-103.5 -87q-129 0 -129 354z M291 1211l96 -50l209 259l-145 96z" />
<glyph unicode="&#xf4;" d="M64 516q0 -171 34 -289t107 -181t182 -63q175 0 256.5 135.5t81.5 397.5q0 181 -35.5 298t-111 176t-191.5 59q-101 0 -173 -50t-111 -168t-39 -315zM209 1225l98 -47l209 258l-145 96zM258 516q0 184 29.5 269.5t99.5 85.5q87 0 108 -84.5t21 -270.5q0 -180 -25.5 -267 t-103.5 -87q-129 0 -129 354zM467 1225l98 -47l209 258l-145 96z" />
<glyph unicode="&#xf5;" d="M64 516q0 -171 34 -289t107 -181t182 -63q175 0 256.5 135.5t81.5 397.5q0 181 -35.5 298t-111 176t-191.5 59q-101 0 -173 -50t-111 -168t-39 -315zM209 1225l98 -47l209 258l-145 96zM258 516q0 184 29.5 269.5t99.5 85.5q87 0 108 -84.5t21 -270.5q0 -180 -25.5 -267 t-103.5 -87q-129 0 -129 354zM467 1225l98 -47l209 258l-145 96z" />
<glyph unicode="&#xf6;" d="M64 516q0 -171 34 -289t107 -181t182 -63q175 0 256.5 135.5t81.5 397.5q0 181 -35.5 298t-111 176t-191.5 59q-101 0 -173 -50t-111 -168t-39 -315zM113 1354q0 -55 34 -88q34 -31 79 -31t78.5 31.5t33.5 87.5q0 51 -33.5 80t-78.5 29t-79 -29t-34 -80zM258 516 q0 184 29.5 269.5t99.5 85.5q87 0 108 -84.5t21 -270.5q0 -180 -25.5 -267t-103.5 -87q-129 0 -129 354zM451 1354q0 -57 34 -88q17 -15 37 -23t43 -8q45 0 79 31t34 88q0 51 -33.5 80t-79.5 29t-80 -28t-34 -81z" />
<glyph unicode="&#xf7;" horiz-adv-x="1032" />
<glyph unicode="&#xf8;" d="M33 33l80 -66l65 113q101 -99 228 -99q82 0 152 45t117 137q23 46 36.5 103.5t13.5 120.5q0 109 -3 184t-11 132q-14 109 -49 168l96 161l-80 64l-82 -129q-28 38 -86 62t-123 24q-83 0 -156.5 -42.5t-120 -142.5t-46.5 -255q0 -187 8 -271q0 -43 12 -91q9 -37 29 -89z M269 561q0 175 37 253.5t92 78.5q36 0 66 -30.5t36 -71.5l-225 -371q0 26 -3 73t-3 68zM291 258l225 371q5 -36 8 -80t3 -90q0 -149 -37.5 -222t-89.5 -73q-33 0 -62 25.5t-47 68.5z" />
<glyph unicode="&#xf9;" horiz-adv-x="791" d="M80 307q0 -129 46 -204t125.5 -105.5t184.5 -30.5q289 0 289 340v725h-209v-790q0 -46 -32 -72t-76 -26q-47 0 -82 33q-35 35 -35 98v757h-211v-725zM258 1436l209 -275l98 64l-178 307z" />
<glyph unicode="&#xfa;" horiz-adv-x="791" d="M80 307q0 -129 46 -204t125.5 -105.5t184.5 -30.5q289 0 289 340v725h-209v-790q0 -46 -32 -72t-76 -26q-47 0 -82 33q-35 35 -35 98v757h-211v-725zM307 1225l97 -47l209 258l-146 96z" />
<glyph unicode="&#xfb;" horiz-adv-x="791" d="M80 307q0 -129 46 -204t125.5 -105.5t184.5 -30.5q289 0 289 340v725h-209v-790q0 -46 -32 -72t-76 -26q-47 0 -82 33q-35 35 -35 98v757h-211v-725zM209 1225l98 -47l209 258l-145 96zM467 1225l98 -47l209 258l-145 96z" />
<glyph unicode="&#xfc;" horiz-adv-x="791" d="M80 307q0 -129 46 -204t125.5 -105.5t184.5 -30.5q289 0 289 340v725h-209v-790q0 -46 -32 -72t-76 -26q-47 0 -82 33q-35 35 -35 98v757h-211v-725zM113 1354q0 -55 34 -88q34 -31 79 -31t78.5 31.5t33.5 87.5q0 51 -33.5 80t-78.5 29t-79 -29t-34 -80zM451 1354 q0 -57 34 -88q17 -15 37 -23t43 -8q45 0 79 31t34 88q0 51 -33.5 80t-79.5 29t-80 -28t-34 -81z" />
<glyph unicode="&#xfd;" horiz-adv-x="758" />
<glyph unicode="&#xfe;" />
<glyph unicode="&#xff;" horiz-adv-x="758" d="M0 1032l275 -952l-162 -484h209l420 1436h-209l-162 -710l-145 710h-226zM113 1370q0 -55 33.5 -86.5t79.5 -31.5q47 0 79.5 31.5t32.5 86.5q0 51 -33.5 80t-78.5 29t-79 -29t-34 -80zM451 1370q0 -56 33 -87t81 -31q45 0 79 31t34 87q0 51 -33.5 80t-79.5 29t-80 -28 t-34 -81z" />
<glyph unicode="&#x152;" horiz-adv-x="1225" d="M74 707q0 -31 3 -94t3 -97q15 -141 49 -244t83 -169.5t105.5 -98t116.5 -31.5q140 0 244 140v-113h533v178h-357v531h307v178h-307v483h340v179h-532v-129q-33 71 -104 116t-152 45q-104 0 -185.5 -83t-107.5 -257q-39 -264 -39 -534zM291 758q0 206 14 342.5t53 211.5 t109 75q100 0 147.5 -137.5t47.5 -475.5q0 -236 -15 -362t-53 -180t-110 -54q-92 0 -142.5 131.5t-50.5 448.5z" />
<glyph unicode="&#x153;" horiz-adv-x="1194" d="M62 527q0 -123 18 -252q24 -151 106 -228.5t181 -77.5q87 0 150 54t63 139q37 -92 107.5 -144.5t150.5 -52.5q106 0 182 92q38 47 57 111.5t19 153.5h-143q0 -176 -129 -176q-41 0 -71 30t-48 102q-12 49 -18 83q-9 53 -9 106h434q0 100 -12.5 181t-37.5 149 q-45 126 -113 183t-144 57q-52 0 -99 -25t-76 -66t-34 -92q-27 90 -93.5 140.5t-145.5 50.5q-98 0 -177 -73.5t-98.5 -204.5t-19.5 -240zM242 500q0 119 19.5 203t50.5 125t65 41q35 0 67 -42t52 -124.5t20 -202.5q0 -115 -18 -197t-48 -124t-65 -42q-51 0 -95 96 q-21 48 -34.5 117.5t-13.5 149.5zM678 596q0 94 17 160q8 31 19 55t25 39q28 31 60 31q35 0 66 -33t51 -96t20 -156h-258z" />
<glyph unicode="&#x2c6;" horiz-adv-x="580" d="M33 1274l96 -80l146 193l176 -176l82 79l-258 275z" />
<glyph unicode="&#x2dc;" horiz-adv-x="580" d="M33 1290h129q8 72 41 72q17 0 62 -24l73 -36q29 -12 66 -12q79 0 112 53t33 156h-113q0 -67 -47 -67q-15 0 -38 9l-60 31q-17 9 -31.5 16.5t-32.5 15.5q-26 12 -49 12q-61 0 -103 -65t-42 -161z" />
<glyph unicode="&#x2000;" horiz-adv-x="1032" />
<glyph unicode="&#x2001;" horiz-adv-x="2065" />
<glyph unicode="&#x2002;" horiz-adv-x="1032" />
<glyph unicode="&#x2003;" horiz-adv-x="2065" />
<glyph unicode="&#x2004;" horiz-adv-x="688" />
<glyph unicode="&#x2005;" horiz-adv-x="516" />
<glyph unicode="&#x2006;" horiz-adv-x="344" />
<glyph unicode="&#x2007;" horiz-adv-x="344" />
<glyph unicode="&#x2008;" horiz-adv-x="258" />
<glyph unicode="&#x2009;" horiz-adv-x="413" />
<glyph unicode="&#x200a;" horiz-adv-x="114" />
<glyph unicode="&#x2010;" horiz-adv-x="500" d="M64 467h387v146h-387v-146z" />
<glyph unicode="&#x2011;" horiz-adv-x="500" d="M64 467h387v146h-387v-146z" />
<glyph unicode="&#x2012;" horiz-adv-x="500" d="M64 467h387v146h-387v-146z" />
<glyph unicode="&#x2013;" horiz-adv-x="1032" d="M-17 436h1049v160h-1049v-160z" />
<glyph unicode="&#x2014;" horiz-adv-x="2048" d="M-17 451h17h2048v162h-16h-2049v-162z" />
<glyph unicode="&#x2018;" horiz-adv-x="436" d="M64 1032l162 -49l145 566l-113 32z" />
<glyph unicode="&#x2019;" horiz-adv-x="436" d="M80 1016l98 -49l209 549l-178 65z" />
<glyph unicode="&#x201a;" horiz-adv-x="2167" />
<glyph unicode="&#x201c;" horiz-adv-x="709" d="M33 1049l160 -49l145 565l-112 33zM307 1049l160 -49l146 565l-113 33z" />
<glyph unicode="&#x201d;" horiz-adv-x="709" d="M80 1016l98 -49l209 549l-178 65zM371 1016l96 -49l211 549l-178 65z" />
<glyph unicode="&#x201e;" horiz-adv-x="709" d="M64 -338l98 -49l209 549l-178 64zM355 -338l96 -49l211 549l-178 64z" />
<glyph unicode="&#x2022;" horiz-adv-x="824" d="M80 500q0 -62 42 -97.5t95 -35.5q56 0 97 35.5t41 97.5q0 59 -39 93t-95 34q-55 0 -98 -34t-43 -93z" />
<glyph unicode="&#x2026;" horiz-adv-x="2048" d="M193 80q0 -62 41 -97.5t96 -35.5q57 0 97 35.5t40 97.5q0 61 -39 94t-94 33q-58 0 -99.5 -34.5t-41.5 -92.5zM871 80q0 -62 41 -97.5t96 -35.5q57 0 97 35.5t40 97.5q0 61 -38.5 94t-94.5 33q-58 0 -99.5 -34.5t-41.5 -92.5zM1549 80q0 -62 41 -97.5t96 -35.5 q57 0 97 35.5t40 97.5q0 61 -39 94t-94 33q-58 0 -99.5 -34.5t-41.5 -92.5z" />
<glyph unicode="&#x202f;" horiz-adv-x="413" />
<glyph unicode="&#x2039;" horiz-adv-x="484" d="M33 533l258 -453l96 49l-209 404l226 387l-97 63z" />
<glyph unicode="&#x203a;" horiz-adv-x="484" d="M64 920l243 -387l-227 -404l113 -65l243 469l-274 450z" />
<glyph unicode="&#x205f;" horiz-adv-x="516" />
<glyph unicode="&#x2122;" horiz-adv-x="1532" d="M-17 1436h226v-741h129v741h227v129h-582v-129zM678 695h113v741l241 -741h80l242 741v-741h115v870h-179l-208 -612l-211 612h-193v-870z" />
<glyph unicode="&#x25fc;" horiz-adv-x="1030" d="M0 0v1030h1030v-1030h-1030z" />
</font>
</defs>
</svg>
